  0
SECTION
  2
HEADER
  9
$ACADVER
  1
AC1009
  0
ENDSEC
  0
SECTION
  2
BLOCKS
  0
BLOCK
  8
1
  2
BoundingBox_-710
  70
64
  10
0
  20
0
  0
POLYLINE
  8
1
  66
1
  70
1
  250
2
  0
VERTEX
  8
1
  10
-1195.471924
  20
850.825562
  0
VERTEX
  8
1
  10
1988.672607
  20
850.825562
  0
VERTEX
  8
1
  10
1988.672607
  20
4034.970215
  0
VERTEX
  8
1
  10
-1195.471924
  20
4034.970215
  0
SEQEND
  0
POINT
  8
2
  10
-1195.471924
  20
850.825562
  0
POINT
  8
2
  10
1988.672607
  20
850.825562
  0
POINT
  8
2
  10
1988.672607
  20
4034.970215
  0
POINT
  8
2
  10
-1195.471924
  20
4034.970215
  0
TEXT
  8
1
  10
-1195.471924
  20
850.825562
  50
0.000000
  1
PIECE NAME: BoundingBox_-710
  7
STANDARD
  0
TEXT
  8
1
  10
-1195.471924
  20
845.825562
  50
0.000000
  1
SIZE: 
  7
STANDARD
  0
TEXT
  8
1
  10
-1195.471924
  20
835.825562
  50
0.000000
  1
QUANTITY: 1
  7
STANDARD
  0
ENDBLK
  0
BLOCK
  8
1
  2
Body_Front_M
  70
64
  10
0
  20
0
  0
POLYLINE
  8
1
  66
1
  70
1
  250
2
  0
VERTEX
  8
1
  10
-13.955170
  20
1415.255127
  0
VERTEX
  8
1
  10
-29.122475
  20
1426.454224
  0
VERTEX
  8
1
  10
-43.271568
  20
1438.736938
  0
VERTEX
  8
1
  10
-56.434479
  20
1452.146118
  0
VERTEX
  8
1
  10
-68.536469
  20
1466.528076
  0
VERTEX
  8
1
  10
-79.499680
  20
1481.781738
  0
VERTEX
  8
1
  10
-89.419067
  20
1497.754028
  0
VERTEX
  8
1
  10
-98.400970
  20
1514.268921
  0
VERTEX
  8
1
  10
-106.382568
  20
1531.291504
  0
VERTEX
  8
1
  10
-113.147064
  20
1548.253296
  0
VERTEX
  8
1
  10
-118.958878
  20
1565.877686
  0
VERTEX
  8
1
  10
-171.334366
  20
1548.467773
  0
VERTEX
  8
1
  10
-186.771439
  20
1543.246216
  0
VERTEX
  8
1
  10
-202.172974
  20
1537.921509
  0
VERTEX
  8
1
  10
-217.473343
  20
1532.311768
  0
VERTEX
  8
1
  10
-232.569702
  20
1526.179810
  0
VERTEX
  8
1
  10
-247.368866
  20
1519.358398
  0
VERTEX
  8
1
  10
-261.900787
  20
1511.984863
  0
VERTEX
  8
1
  10
-257.716766
  20
1501.743530
  0
VERTEX
  8
1
  10
-253.736755
  20
1491.426147
  0
VERTEX
  8
1
  10
-246.386871
  20
1470.562500
  0
VERTEX
  8
1
  10
-239.416687
  20
1449.567261
  0
VERTEX
  8
1
  10
-236.158630
  20
1438.994141
  0
VERTEX
  8
1
  10
-233.234985
  20
1428.333252
  0
VERTEX
  8
1
  10
-230.855865
  20
1417.532715
  0
VERTEX
  8
1
  10
-228.938080
  20
1406.639404
  0
VERTEX
  8
1
  10
-228.846375
  20
1406.075073
  0
VERTEX
  8
1
  10
-227.332886
  20
1395.680054
  0
VERTEX
  8
1
  10
-226.447922
  20
1384.673340
  0
VERTEX
  8
1
  10
-226.513779
  20
1373.581665
  0
VERTEX
  8
1
  10
-227.883484
  20
1362.653687
  0
VERTEX
  8
1
  10
-230.902344
  20
1352.005127
  0
VERTEX
  8
1
  10
-235.651459
  20
1342.100220
  0
VERTEX
  8
1
  10
-242.379944
  20
1333.391846
  0
VERTEX
  8
1
  10
-250.568970
  20
1325.933105
  0
VERTEX
  8
1
  10
-259.625366
  20
1319.817993
  0
VERTEX
  8
1
  10
-269.762085
  20
1315.064941
  0
VERTEX
  8
1
  10
-266.732269
  20
1268.531982
  0
VERTEX
  8
1
  10
-264.400787
  20
1221.758423
  0
VERTEX
  8
1
  10
-262.448883
  20
1174.684326
  0
VERTEX
  8
1
  10
-260.742279
  20
1127.547363
  0
VERTEX
  8
1
  10
-264.854889
  20
865.825562
  0
VERTEX
  8
1
  10
-13.936272
  20
865.836487
  0
VERTEX
  8
1
  10
236.982117
  20
865.842651
  0
VERTEX
  8
1
  10
232.851715
  20
1127.564209
  0
VERTEX
  8
1
  10
234.555115
  20
1174.701660
  0
VERTEX
  8
1
  10
236.503784
  20
1221.775513
  0
VERTEX
  8
1
  10
238.832031
  20
1268.549072
  0
VERTEX
  8
1
  10
241.858734
  20
1315.082764
  0
VERTEX
  8
1
  10
231.721619
  20
1319.834595
  0
VERTEX
  8
1
  10
222.664886
  20
1325.949097
  0
VERTEX
  8
1
  10
214.475220
  20
1333.407349
  0
VERTEX
  8
1
  10
207.746124
  20
1342.115356
  0
VERTEX
  8
1
  10
202.996338
  20
1352.019897
  0
VERTEX
  8
1
  10
199.976898
  20
1362.668213
  0
VERTEX
  8
1
  10
198.606445
  20
1373.596680
  0
VERTEX
  8
1
  10
198.539734
  20
1384.688232
  0
VERTEX
  8
1
  10
199.424042
  20
1395.694458
  0
VERTEX
  8
1
  10
200.936829
  20
1406.089722
  0
VERTEX
  8
1
  10
201.028503
  20
1406.654175
  0
VERTEX
  8
1
  10
202.945557
  20
1417.547485
  0
VERTEX
  8
1
  10
205.323914
  20
1428.348145
  0
VERTEX
  8
1
  10
208.246735
  20
1439.009277
  0
VERTEX
  8
1
  10
211.504150
  20
1449.582642
  0
VERTEX
  8
1
  10
218.472931
  20
1470.578247
  0
VERTEX
  8
1
  10
225.821259
  20
1491.442383
  0
VERTEX
  8
1
  10
229.800690
  20
1501.760132
  0
VERTEX
  8
1
  10
233.983948
  20
1512.001709
  0
VERTEX
  8
1
  10
219.451599
  20
1519.374268
  0
VERTEX
  8
1
  10
204.651947
  20
1526.194824
  0
VERTEX
  8
1
  10
189.555054
  20
1532.325684
  0
VERTEX
  8
1
  10
174.254425
  20
1537.934326
  0
VERTEX
  8
1
  10
158.852417
  20
1543.257935
  0
VERTEX
  8
1
  10
143.415100
  20
1548.478516
  0
VERTEX
  8
1
  10
91.038437
  20
1565.884888
  0
VERTEX
  8
1
  10
85.227814
  20
1548.259521
  0
VERTEX
  8
1
  10
78.464447
  20
1531.297852
  0
VERTEX
  8
1
  10
70.484009
  20
1514.274658
  0
VERTEX
  8
1
  10
61.503201
  20
1497.759155
  0
VERTEX
  8
1
  10
51.584888
  20
1481.786133
  0
VERTEX
  8
1
  10
40.622711
  20
1466.531738
  0
VERTEX
  8
1
  10
28.521667
  20
1452.148926
  0
VERTEX
  8
1
  10
15.359650
  20
1438.738892
  0
VERTEX
  8
1
  10
1.211399
  20
1426.455200
  0
SEQEND
  0
TEXT
  8
1
  10
-13.955170
  20
1415.255127
  40
0.250000
  50
0.000000
  1
# 91
  7
STANDARD
  0
TEXT
  8
1
  10
-118.958878
  20
1565.877686
  40
0.250000
  50
0.000000
  1
# 92
  7
STANDARD
  0
TEXT
  8
1
  10
-261.900787
  20
1511.984863
  40
0.250000
  50
0.000000
  1
# 93
  7
STANDARD
  0
TEXT
  8
1
  10
-269.762085
  20
1315.064941
  40
0.250000
  50
0.000000
  1
# 94
  7
STANDARD
  0
TEXT
  8
1
  10
-260.742279
  20
1127.547363
  40
0.250000
  50
0.000000
  1
# 95
  7
STANDARD
  0
TEXT
  8
1
  10
-264.854889
  20
865.825562
  40
0.250000
  50
0.000000
  1
# 96
  7
STANDARD
  0
TEXT
  8
1
  10
-13.936272
  20
865.836487
  40
0.250000
  50
0.000000
  1
# 97
  7
STANDARD
  0
TEXT
  8
1
  10
236.982117
  20
865.842651
  40
0.250000
  50
0.000000
  1
# 98
  7
STANDARD
  0
TEXT
  8
1
  10
232.851715
  20
1127.564209
  40
0.250000
  50
0.000000
  1
# 99
  7
STANDARD
  0
TEXT
  8
1
  10
241.858734
  20
1315.082764
  40
0.250000
  50
0.000000
  1
# 100
  7
STANDARD
  0
TEXT
  8
1
  10
233.983948
  20
1512.001709
  40
0.250000
  50
0.000000
  1
# 101
  7
STANDARD
  0
TEXT
  8
1
  10
91.038437
  20
1565.884888
  40
0.250000
  50
0.000000
  1
# 102
  7
STANDARD
  0
POLYLINE
  8
84
  66
1
  70
1
  250
2
  0
VERTEX
  8
84
  10
-13.955170
  20
1415.255127
  0
VERTEX
  8
84
  10
-19.068201
  20
1418.915161
  0
VERTEX
  8
84
  10
-24.137234
  20
1422.628784
  0
VERTEX
  8
84
  10
-29.122475
  20
1426.454224
  0
VERTEX
  8
84
  10
-32.038982
  20
1428.808105
  0
VERTEX
  8
84
  10
-34.910362
  20
1431.216309
  0
VERTEX
  8
84
  10
-37.738396
  20
1433.675781
  0
VERTEX
  8
84
  10
-40.524868
  20
1436.183594
  0
VERTEX
  8
84
  10
-43.271568
  20
1438.736938
  0
VERTEX
  8
84
  10
-46.658447
  20
1441.995850
  0
VERTEX
  8
84
  10
-49.981159
  20
1445.316650
  0
VERTEX
  8
84
  10
-53.239807
  20
1448.700073
  0
VERTEX
  8
84
  10
-56.434479
  20
1452.146118
  0
VERTEX
  8
84
  10
-59.563972
  20
1455.653931
  0
VERTEX
  8
84
  10
-62.624557
  20
1459.219971
  0
VERTEX
  8
84
  10
-65.615601
  20
1462.844604
  0
VERTEX
  8
84
  10
-68.536469
  20
1466.528076
  0
VERTEX
  8
84
  10
-71.383286
  20
1470.265381
  0
VERTEX
  8
84
  10
-74.157761
  20
1474.054565
  0
VERTEX
  8
84
  10
-76.862389
  20
1477.893921
  0
VERTEX
  8
84
  10
-79.499680
  20
1481.781738
  0
VERTEX
  8
84
  10
-82.072754
  20
1485.717041
  0
VERTEX
  8
84
  10
-84.581009
  20
1489.692017
  0
VERTEX
  8
84
  10
-87.028442
  20
1493.704834
  0
VERTEX
  8
84
  10
-89.419067
  20
1497.754028
  0
VERTEX
  8
84
  10
-91.753815
  20
1501.834961
  0
VERTEX
  8
84
  10
-94.030289
  20
1505.946655
  0
VERTEX
  8
84
  10
-96.246643
  20
1510.090576
  0
VERTEX
  8
84
  10
-98.400970
  20
1514.268921
  0
VERTEX
  8
84
  10
-100.490631
  20
1518.480103
  0
VERTEX
  8
84
  10
-102.515686
  20
1522.721191
  0
VERTEX
  8
84
  10
-104.478790
  20
1526.991699
  0
VERTEX
  8
84
  10
-106.382568
  20
1531.291504
  0
VERTEX
  8
84
  10
-108.174438
  20
1535.492920
  0
VERTEX
  8
84
  10
-109.903412
  20
1539.718628
  0
VERTEX
  8
84
  10
-111.563095
  20
1543.971191
  0
VERTEX
  8
84
  10
-113.147064
  20
1548.253296
  0
VERTEX
  8
84
  10
-115.169922
  20
1554.098755
  0
VERTEX
  8
84
  10
-117.089554
  20
1559.978271
  0
VERTEX
  8
84
  10
-118.958878
  20
1565.877686
  0
VERTEX
  8
84
  10
-118.958878
  20
1565.877686
  0
VERTEX
  8
84
  10
-171.334366
  20
1548.467773
  0
VERTEX
  8
84
  10
-186.771439
  20
1543.246216
  0
VERTEX
  8
84
  10
-202.172974
  20
1537.921509
  0
VERTEX
  8
84
  10
-209.841644
  20
1535.166992
  0
VERTEX
  8
84
  10
-217.473343
  20
1532.311768
  0
VERTEX
  8
84
  10
-222.533997
  20
1530.336792
  0
VERTEX
  8
84
  10
-227.566498
  20
1528.295898
  0
VERTEX
  8
84
  10
-232.569702
  20
1526.179810
  0
VERTEX
  8
84
  10
-237.538773
  20
1523.983154
  0
VERTEX
  8
84
  10
-242.470779
  20
1521.708618
  0
VERTEX
  8
84
  10
-247.368866
  20
1519.358398
  0
VERTEX
  8
84
  10
-254.654907
  20
1515.711792
  0
VERTEX
  8
84
  10
-261.900787
  20
1511.984863
  0
VERTEX
  8
84
  10
-261.900787
  20
1511.984863
  0
VERTEX
  8
84
  10
-257.716766
  20
1501.743530
  0
VERTEX
  8
84
  10
-253.736755
  20
1491.426147
  0
VERTEX
  8
84
  10
-251.216507
  20
1484.496094
  0
VERTEX
  8
84
  10
-248.777649
  20
1477.539062
  0
VERTEX
  8
84
  10
-246.386871
  20
1470.562500
  0
VERTEX
  8
84
  10
-242.850998
  20
1460.081299
  0
VERTEX
  8
84
  10
-239.416687
  20
1449.567261
  0
VERTEX
  8
84
  10
-236.158630
  20
1438.994141
  0
VERTEX
  8
84
  10
-234.639252
  20
1433.679199
  0
VERTEX
  8
84
  10
-233.234985
  20
1428.333252
  0
VERTEX
  8
84
  10
-231.975754
  20
1422.948486
  0
VERTEX
  8
84
  10
-230.855865
  20
1417.532715
  0
VERTEX
  8
84
  10
-228.938080
  20
1406.639404
  0
VERTEX
  8
84
  10
-228.846375
  20
1406.075073
  0
VERTEX
  8
84
  10
-227.332886
  20
1395.680054
  0
VERTEX
  8
84
  10
-226.783356
  20
1390.185791
  0
VERTEX
  8
84
  10
-226.447922
  20
1384.673340
  0
VERTEX
  8
84
  10
-226.349213
  20
1380.975586
  0
VERTEX
  8
84
  10
-226.365860
  20
1377.277954
  0
VERTEX
  8
84
  10
-226.513779
  20
1373.581665
  0
VERTEX
  8
84
  10
-226.805725
  20
1369.918579
  0
VERTEX
  8
84
  10
-227.257141
  20
1366.273071
  0
VERTEX
  8
84
  10
-227.883484
  20
1362.653687
  0
VERTEX
  8
84
  10
-228.478851
  20
1359.949585
  0
VERTEX
  8
84
  10
-229.180786
  20
1357.271606
  0
VERTEX
  8
84
  10
-229.988800
  20
1354.622559
  0
VERTEX
  8
84
  10
-230.902344
  20
1352.005127
  0
VERTEX
  8
84
  10
-231.913696
  20
1349.444824
  0
VERTEX
  8
84
  10
-233.036240
  20
1346.933105
  0
VERTEX
  8
84
  10
-234.279099
  20
1344.481201
  0
VERTEX
  8
84
  10
-235.651459
  20
1342.100220
  0
VERTEX
  8
84
  10
-237.160751
  20
1339.796753
  0
VERTEX
  8
84
  10
-238.794098
  20
1337.578125
  0
VERTEX
  8
84
  10
-240.538254
  20
1335.443481
  0
VERTEX
  8
84
  10
-242.379944
  20
1333.391846
  0
VERTEX
  8
84
  10
-244.982361
  20
1330.768677
  0
VERTEX
  8
84
  10
-247.717148
  20
1328.286499
  0
VERTEX
  8
84
  10
-250.568970
  20
1325.933105
  0
VERTEX
  8
84
  10
-252.745651
  20
1324.271729
  0
VERTEX
  8
84
  10
-254.978546
  20
1322.689941
  0
VERTEX
  8
84
  10
-257.270752
  20
1321.200928
  0
VERTEX
  8
84
  10
-259.625366
  20
1319.817993
  0
VERTEX
  8
84
  10
-262.938049
  20
1318.108398
  0
VERTEX
  8
84
  10
-266.329742
  20
1316.549561
  0
VERTEX
  8
84
  10
-269.762085
  20
1315.064941
  0
VERTEX
  8
84
  10
-269.762085
  20
1315.064941
  0
VERTEX
  8
84
  10
-268.965637
  20
1303.431885
  0
VERTEX
  8
84
  10
-268.184937
  20
1291.802246
  0
VERTEX
  8
84
  10
-267.435364
  20
1280.170654
  0
VERTEX
  8
84
  10
-266.732269
  20
1268.531982
  0
VERTEX
  8
84
  10
-266.084259
  20
1256.840088
  0
VERTEX
  8
84
  10
-265.487549
  20
1245.149414
  0
VERTEX
  8
84
  10
-264.930359
  20
1233.456787
  0
VERTEX
  8
84
  10
-264.400787
  20
1221.758423
  0
VERTEX
  8
84
  10
-263.718842
  20
1206.066528
  0
VERTEX
  8
84
  10
-263.067810
  20
1190.378662
  0
VERTEX
  8
84
  10
-262.448883
  20
1174.684326
  0
VERTEX
  8
84
  10
-260.742279
  20
1127.547363
  0
VERTEX
  8
84
  10
-260.742279
  20
1127.547363
  0
VERTEX
  8
84
  10
-264.854889
  20
865.825562
  0
VERTEX
  8
84
  10
-264.854889
  20
865.825562
  0
VERTEX
  8
84
  10
-13.936272
  20
865.836487
  0
VERTEX
  8
84
  10
-13.936272
  20
865.836487
  0
VERTEX
  8
84
  10
236.982117
  20
865.842651
  0
VERTEX
  8
84
  10
236.982117
  20
865.842651
  0
VERTEX
  8
84
  10
232.851715
  20
1127.564209
  0
VERTEX
  8
84
  10
232.851715
  20
1127.564209
  0
VERTEX
  8
84
  10
234.555115
  20
1174.701660
  0
VERTEX
  8
84
  10
235.172958
  20
1190.395752
  0
VERTEX
  8
84
  10
235.822876
  20
1206.083740
  0
VERTEX
  8
84
  10
236.503784
  20
1221.775513
  0
VERTEX
  8
84
  10
236.924957
  20
1231.134766
  0
VERTEX
  8
84
  10
237.362289
  20
1240.489868
  0
VERTEX
  8
84
  10
237.821884
  20
1249.842773
  0
VERTEX
  8
84
  10
238.309769
  20
1259.195312
  0
VERTEX
  8
84
  10
238.832031
  20
1268.549072
  0
VERTEX
  8
84
  10
239.534348
  20
1280.187744
  0
VERTEX
  8
84
  10
240.283142
  20
1291.819580
  0
VERTEX
  8
84
  10
241.063049
  20
1303.449463
  0
VERTEX
  8
84
  10
241.858734
  20
1315.082764
  0
VERTEX
  8
84
  10
241.858734
  20
1315.082764
  0
VERTEX
  8
84
  10
238.426208
  20
1316.566895
  0
VERTEX
  8
84
  10
235.034424
  20
1318.125244
  0
VERTEX
  8
84
  10
231.721619
  20
1319.834595
  0
VERTEX
  8
84
  10
229.366943
  20
1321.217285
  0
VERTEX
  8
84
  10
227.074631
  20
1322.706177
  0
VERTEX
  8
84
  10
224.841644
  20
1324.287842
  0
VERTEX
  8
84
  10
222.664886
  20
1325.949097
  0
VERTEX
  8
84
  10
219.812881
  20
1328.302490
  0
VERTEX
  8
84
  10
217.077850
  20
1330.784302
  0
VERTEX
  8
84
  10
214.475220
  20
1333.407349
  0
VERTEX
  8
84
  10
212.633408
  20
1335.458862
  0
VERTEX
  8
84
  10
210.889114
  20
1337.593506
  0
VERTEX
  8
84
  10
209.255585
  20
1339.812012
  0
VERTEX
  8
84
  10
207.746124
  20
1342.115356
  0
VERTEX
  8
84
  10
206.373611
  20
1344.496216
  0
VERTEX
  8
84
  10
205.130569
  20
1346.947998
  0
VERTEX
  8
84
  10
204.007858
  20
1349.459717
  0
VERTEX
  8
84
  10
202.996338
  20
1352.019897
  0
VERTEX
  8
84
  10
202.082642
  20
1354.637207
  0
VERTEX
  8
84
  10
201.274490
  20
1357.286255
  0
VERTEX
  8
84
  10
200.572388
  20
1359.964233
  0
VERTEX
  8
84
  10
199.976898
  20
1362.668213
  0
VERTEX
  8
84
  10
199.350311
  20
1366.287842
  0
VERTEX
  8
84
  10
198.898636
  20
1369.933350
  0
VERTEX
  8
84
  10
198.606445
  20
1373.596680
  0
VERTEX
  8
84
  10
198.458221
  20
1377.292847
  0
VERTEX
  8
84
  10
198.441284
  20
1380.990479
  0
VERTEX
  8
84
  10
198.539734
  20
1384.688232
  0
VERTEX
  8
84
  10
198.874832
  20
1390.200317
  0
VERTEX
  8
84
  10
199.424042
  20
1395.694458
  0
VERTEX
  8
84
  10
200.936829
  20
1406.089722
  0
VERTEX
  8
84
  10
201.028503
  20
1406.654175
  0
VERTEX
  8
84
  10
202.945557
  20
1417.547485
  0
VERTEX
  8
84
  10
204.065094
  20
1422.963257
  0
VERTEX
  8
84
  10
205.323914
  20
1428.348145
  0
VERTEX
  8
84
  10
206.727753
  20
1433.694214
  0
VERTEX
  8
84
  10
208.246735
  20
1439.009277
  0
VERTEX
  8
84
  10
211.504150
  20
1449.582642
  0
VERTEX
  8
84
  10
214.937805
  20
1460.096924
  0
VERTEX
  8
84
  10
218.472931
  20
1470.578247
  0
VERTEX
  8
84
  10
220.863174
  20
1477.555054
  0
VERTEX
  8
84
  10
223.301514
  20
1484.512207
  0
VERTEX
  8
84
  10
225.821259
  20
1491.442383
  0
VERTEX
  8
84
  10
229.800690
  20
1501.760132
  0
VERTEX
  8
84
  10
233.983948
  20
1512.001709
  0
VERTEX
  8
84
  10
233.983948
  20
1512.001709
  0
VERTEX
  8
84
  10
226.737854
  20
1515.728027
  0
VERTEX
  8
84
  10
219.451599
  20
1519.374268
  0
VERTEX
  8
84
  10
214.553375
  20
1521.724243
  0
VERTEX
  8
84
  10
209.621185
  20
1523.998535
  0
VERTEX
  8
84
  10
204.651947
  20
1526.194824
  0
VERTEX
  8
84
  10
199.648560
  20
1528.310547
  0
VERTEX
  8
84
  10
194.615906
  20
1530.351196
  0
VERTEX
  8
84
  10
189.555054
  20
1532.325684
  0
VERTEX
  8
84
  10
181.923218
  20
1535.180420
  0
VERTEX
  8
84
  10
174.254425
  20
1537.934326
  0
VERTEX
  8
84
  10
158.852417
  20
1543.257935
  0
VERTEX
  8
84
  10
143.415100
  20
1548.478516
  0
VERTEX
  8
84
  10
91.038437
  20
1565.884888
  0
VERTEX
  8
84
  10
91.038437
  20
1565.884888
  0
VERTEX
  8
84
  10
89.169540
  20
1559.985229
  0
VERTEX
  8
84
  10
87.250336
  20
1554.105347
  0
VERTEX
  8
84
  10
85.227814
  20
1548.259521
  0
VERTEX
  8
84
  10
83.644135
  20
1543.977539
  0
VERTEX
  8
84
  10
81.984741
  20
1539.724854
  0
VERTEX
  8
84
  10
80.256012
  20
1535.499268
  0
VERTEX
  8
84
  10
78.464447
  20
1531.297852
  0
VERTEX
  8
84
  10
76.560928
  20
1526.997925
  0
VERTEX
  8
84
  10
74.598129
  20
1522.727295
  0
VERTEX
  8
84
  10
72.573380
  20
1518.486084
  0
VERTEX
  8
84
  10
70.484009
  20
1514.274658
  0
VERTEX
  8
84
  10
68.329987
  20
1510.096313
  0
VERTEX
  8
84
  10
66.113907
  20
1505.952026
  0
VERTEX
  8
84
  10
63.837681
  20
1501.840332
  0
VERTEX
  8
84
  10
61.503201
  20
1497.759155
  0
VERTEX
  8
84
  10
59.112850
  20
1493.709839
  0
VERTEX
  8
84
  10
56.665684
  20
1489.696777
  0
VERTEX
  8
84
  10
54.157696
  20
1485.721680
  0
VERTEX
  8
84
  10
51.584888
  20
1481.786133
  0
VERTEX
  8
84
  10
48.947853
  20
1477.898071
  0
VERTEX
  8
84
  10
46.243477
  20
1474.058594
  0
VERTEX
  8
84
  10
43.469265
  20
1470.269165
  0
VERTEX
  8
84
  10
40.622711
  20
1466.531738
  0
VERTEX
  8
84
  10
37.702084
  20
1462.848022
  0
VERTEX
  8
84
  10
34.711292
  20
1459.223267
  0
VERTEX
  8
84
  10
31.650940
  20
1455.656860
  0
VERTEX
  8
84
  10
28.521667
  20
1452.148926
  0
VERTEX
  8
84
  10
25.327229
  20
1448.702637
  0
VERTEX
  8
84
  10
22.068806
  20
1445.319092
  0
VERTEX
  8
84
  10
18.746307
  20
1441.997925
  0
VERTEX
  8
84
  10
15.359650
  20
1438.738892
  0
VERTEX
  8
84
  10
12.613121
  20
1436.185425
  0
VERTEX
  8
84
  10
9.826815
  20
1433.677368
  0
VERTEX
  8
84
  10
6.998953
  20
1431.217773
  0
VERTEX
  8
84
  10
4.127743
  20
1428.809326
  0
VERTEX
  8
84
  10
1.211399
  20
1426.455200
  0
VERTEX
  8
84
  10
-3.773587
  20
1422.629517
  0
VERTEX
  8
84
  10
-8.842375
  20
1418.915527
  0
VERTEX
  8
84
  10
-13.955170
  20
1415.255127
  0
SEQEND
  0
POINT
  8
2
  10
-13.955170
  20
1415.255127
  0
POINT
  8
2
  10
-118.958878
  20
1565.877686
  0
POINT
  8
2
  10
-261.900787
  20
1511.984863
  0
POINT
  8
2
  10
-269.762085
  20
1315.064941
  0
POINT
  8
2
  10
-260.742279
  20
1127.547363
  0
POINT
  8
2
  10
-264.854889
  20
865.825562
  0
POINT
  8
2
  10
-13.936272
  20
865.836487
  0
POINT
  8
2
  10
236.982117
  20
865.842651
  0
POINT
  8
2
  10
232.851715
  20
1127.564209
  0
POINT
  8
2
  10
241.858734
  20
1315.082764
  0
POINT
  8
2
  10
233.983948
  20
1512.001709
  0
POINT
  8
2
  10
91.038437
  20
1565.884888
  0
POINT
  8
3
  10
-29.122475
  20
1426.454224
  0
POINT
  8
3
  10
-43.271568
  20
1438.736938
  0
POINT
  8
3
  10
-56.434479
  20
1452.146118
  0
POINT
  8
3
  10
-68.536469
  20
1466.528076
  0
POINT
  8
3
  10
-79.499680
  20
1481.781738
  0
POINT
  8
3
  10
-89.419067
  20
1497.754028
  0
POINT
  8
3
  10
-98.400970
  20
1514.268921
  0
POINT
  8
3
  10
-106.382568
  20
1531.291504
  0
POINT
  8
3
  10
-113.147064
  20
1548.253296
  0
POINT
  8
3
  10
-171.334366
  20
1548.467773
  0
POINT
  8
3
  10
-186.771439
  20
1543.246216
  0
POINT
  8
3
  10
-202.172974
  20
1537.921509
  0
POINT
  8
3
  10
-217.473343
  20
1532.311768
  0
POINT
  8
3
  10
-232.569702
  20
1526.179810
  0
POINT
  8
3
  10
-247.368866
  20
1519.358398
  0
POINT
  8
3
  10
-257.716766
  20
1501.743530
  0
POINT
  8
3
  10
-253.736755
  20
1491.426147
  0
POINT
  8
3
  10
-246.386871
  20
1470.562500
  0
POINT
  8
3
  10
-239.416687
  20
1449.567261
  0
POINT
  8
3
  10
-236.158630
  20
1438.994141
  0
POINT
  8
3
  10
-233.234985
  20
1428.333252
  0
POINT
  8
3
  10
-230.855865
  20
1417.532715
  0
POINT
  8
3
  10
-228.938080
  20
1406.639404
  0
POINT
  8
3
  10
-228.846375
  20
1406.075073
  0
POINT
  8
3
  10
-227.332886
  20
1395.680054
  0
POINT
  8
3
  10
-226.447922
  20
1384.673340
  0
POINT
  8
3
  10
-226.513779
  20
1373.581665
  0
POINT
  8
3
  10
-227.883484
  20
1362.653687
  0
POINT
  8
3
  10
-230.902344
  20
1352.005127
  0
POINT
  8
3
  10
-235.651459
  20
1342.100220
  0
POINT
  8
3
  10
-242.379944
  20
1333.391846
  0
POINT
  8
3
  10
-250.568970
  20
1325.933105
  0
POINT
  8
3
  10
-259.625366
  20
1319.817993
  0
POINT
  8
3
  10
-266.732269
  20
1268.531982
  0
POINT
  8
3
  10
-264.400787
  20
1221.758423
  0
POINT
  8
3
  10
-262.448883
  20
1174.684326
  0
POINT
  8
3
  10
234.555115
  20
1174.701660
  0
POINT
  8
3
  10
236.503784
  20
1221.775513
  0
POINT
  8
3
  10
238.832031
  20
1268.549072
  0
POINT
  8
3
  10
231.721619
  20
1319.834595
  0
POINT
  8
3
  10
222.664886
  20
1325.949097
  0
POINT
  8
3
  10
214.475220
  20
1333.407349
  0
POINT
  8
3
  10
207.746124
  20
1342.115356
  0
POINT
  8
3
  10
202.996338
  20
1352.019897
  0
POINT
  8
3
  10
199.976898
  20
1362.668213
  0
POINT
  8
3
  10
198.606445
  20
1373.596680
  0
POINT
  8
3
  10
198.539734
  20
1384.688232
  0
POINT
  8
3
  10
199.424042
  20
1395.694458
  0
POINT
  8
3
  10
200.936829
  20
1406.089722
  0
POINT
  8
3
  10
201.028503
  20
1406.654175
  0
POINT
  8
3
  10
202.945557
  20
1417.547485
  0
POINT
  8
3
  10
205.323914
  20
1428.348145
  0
POINT
  8
3
  10
208.246735
  20
1439.009277
  0
POINT
  8
3
  10
211.504150
  20
1449.582642
  0
POINT
  8
3
  10
218.472931
  20
1470.578247
  0
POINT
  8
3
  10
225.821259
  20
1491.442383
  0
POINT
  8
3
  10
229.800690
  20
1501.760132
  0
POINT
  8
3
  10
219.451599
  20
1519.374268
  0
POINT
  8
3
  10
204.651947
  20
1526.194824
  0
POINT
  8
3
  10
189.555054
  20
1532.325684
  0
POINT
  8
3
  10
174.254425
  20
1537.934326
  0
POINT
  8
3
  10
158.852417
  20
1543.257935
  0
POINT
  8
3
  10
143.415100
  20
1548.478516
  0
POINT
  8
3
  10
85.227814
  20
1548.259521
  0
POINT
  8
3
  10
78.464447
  20
1531.297852
  0
POINT
  8
3
  10
70.484009
  20
1514.274658
  0
POINT
  8
3
  10
61.503201
  20
1497.759155
  0
POINT
  8
3
  10
51.584888
  20
1481.786133
  0
POINT
  8
3
  10
40.622711
  20
1466.531738
  0
POINT
  8
3
  10
28.521667
  20
1452.148926
  0
POINT
  8
3
  10
15.359650
  20
1438.738892
  0
POINT
  8
3
  10
1.211399
  20
1426.455200
  0
POINT
  8
4
  10
-228.846375
  20
1406.075073
  30
7.000000
  39
0.000000
  50
9.946529
  0
POINT
  8
4
  10
200.936829
  20
1406.089722
  30
7.000000
  39
0.000000
  50
171.718216
  0
POINT
  8
4
  10
-13.945721
  20
1140.545776
  30
7.000000
  39
0.000000
  50
0.000000
  0
POINT
  8
4
  10
-13.945721
  20
1140.545776
  30
7.000000
  39
0.000000
  50
0.000000
  0
LINE
  8
7
  10
-13.948644
  20
1125.855225
  11
-13.954707
  21
1305.855225
  0
POLYLINE
  8
8
  66
1
  70
0
  250
0
  0
VERTEX
  8
8
  10
-13.944874
  20
1127.555664
  0
VERTEX
  8
8
  10
-260.742279
  20
1127.547852
  0
SEQEND
  0
TEXT
  8
8
  10
-13.944874
  20
1127.555664
  40
0.250000
  50
0.000000
  1
# 89
  7
STANDARD
  0
TEXT
  8
8
  10
-260.742279
  20
1127.547852
  40
0.250000
  50
0.000000
  1
# 90
  7
STANDARD
  0
POLYLINE
  8
85
  66
1
  70
0
  250
1
  0
VERTEX
  8
85
  10
-13.944874
  20
1127.555664
  0
VERTEX
  8
85
  10
-260.742279
  20
1127.547852
  0
SEQEND
  0
POINT
  8
2
  10
-13.944874
  20
1127.555664
  0
POINT
  8
2
  10
-260.742279
  20
1127.547852
  0
POLYLINE
  8
8
  66
1
  70
0
  250
0
  0
VERTEX
  8
8
  10
-13.946678
  20
1183.490967
  0
VERTEX
  8
8
  10
-21.446678
  20
1181.481445
  0
VERTEX
  8
8
  10
-26.936783
  20
1175.990479
  0
VERTEX
  8
8
  10
-28.946678
  20
1168.490967
  0
VERTEX
  8
8
  10
-26.936783
  20
1160.990479
  0
VERTEX
  8
8
  10
-21.446678
  20
1155.500488
  0
VERTEX
  8
8
  10
-13.946678
  20
1153.490967
  0
SEQEND
  0
TEXT
  8
8
  10
-13.946678
  20
1183.490967
  40
0.250000
  50
0.000000
  1
# 87
  7
STANDARD
  0
TEXT
  8
8
  10
-13.946678
  20
1153.490967
  40
0.250000
  50
0.000000
  1
# 88
  7
STANDARD
  0
POLYLINE
  8
85
  66
1
  70
0
  250
1
  0
VERTEX
  8
85
  10
-13.946678
  20
1183.490967
  0
VERTEX
  8
85
  10
-15.903966
  20
1183.174561
  0
VERTEX
  8
85
  10
-17.828226
  20
1182.784058
  0
VERTEX
  8
85
  10
-19.686710
  20
1182.244751
  0
VERTEX
  8
85
  10
-21.446678
  20
1181.481445
  0
VERTEX
  8
85
  10
-22.762341
  20
1180.670166
  0
VERTEX
  8
85
  10
-23.981430
  20
1179.692017
  0
VERTEX
  8
85
  10
-25.091698
  20
1178.570557
  0
VERTEX
  8
85
  10
-26.080898
  20
1177.328979
  0
VERTEX
  8
85
  10
-26.936783
  20
1175.990479
  0
VERTEX
  8
85
  10
-27.648262
  20
1174.577881
  0
VERTEX
  8
85
  10
-28.209505
  20
1173.107178
  0
VERTEX
  8
85
  10
-28.615997
  20
1171.592896
  0
VERTEX
  8
85
  10
-28.863226
  20
1170.049438
  0
VERTEX
  8
85
  10
-28.946678
  20
1168.490967
  0
VERTEX
  8
85
  10
-28.863325
  20
1166.932251
  0
VERTEX
  8
85
  10
-28.616154
  20
1165.388550
  0
VERTEX
  8
85
  10
-28.209667
  20
1163.874146
  0
VERTEX
  8
85
  10
-27.648376
  20
1162.403320
  0
VERTEX
  8
85
  10
-26.936783
  20
1160.990479
  0
VERTEX
  8
85
  10
-26.080887
  20
1159.652344
  0
VERTEX
  8
85
  10
-25.091667
  20
1158.410889
  0
VERTEX
  8
85
  10
-23.981386
  20
1157.289551
  0
VERTEX
  8
85
  10
-22.762306
  20
1156.311646
  0
VERTEX
  8
85
  10
-21.446678
  20
1155.500488
  0
VERTEX
  8
85
  10
-19.686672
  20
1154.737305
  0
VERTEX
  8
85
  10
-17.828180
  20
1154.197876
  0
VERTEX
  8
85
  10
-15.903937
  20
1153.807373
  0
VERTEX
  8
85
  10
-13.946678
  20
1153.490967
  0
SEQEND
  0
POINT
  8
2
  10
-13.946678
  20
1183.490967
  0
POINT
  8
2
  10
-13.946678
  20
1153.490967
  0
POINT
  8
3
  10
-21.446678
  20
1181.481445
  0
POINT
  8
3
  10
-26.936783
  20
1175.990479
  0
POINT
  8
3
  10
-28.946678
  20
1168.490967
  0
POINT
  8
3
  10
-26.936783
  20
1160.990479
  0
POINT
  8
3
  10
-21.446678
  20
1155.500488
  0
POLYLINE
  8
8
  66
1
  70
0
  250
0
  0
VERTEX
  8
8
  10
-13.937477
  20
890.836548
  0
VERTEX
  8
8
  10
-264.856079
  20
890.825317
  0
SEQEND
  0
TEXT
  8
8
  10
-13.937477
  20
890.836548
  40
0.250000
  50
0.000000
  1
# 85
  7
STANDARD
  0
TEXT
  8
8
  10
-264.856079
  20
890.825317
  40
0.250000
  50
0.000000
  1
# 86
  7
STANDARD
  0
POLYLINE
  8
85
  66
1
  70
0
  250
1
  0
VERTEX
  8
85
  10
-13.937477
  20
890.836548
  0
VERTEX
  8
85
  10
-264.856079
  20
890.825317
  0
SEQEND
  0
POINT
  8
2
  10
-13.937477
  20
890.836548
  0
POINT
  8
2
  10
-264.856079
  20
890.825317
  0
POLYLINE
  8
8
  66
1
  70
0
  250
0
  0
VERTEX
  8
8
  10
-13.936882
  20
884.836548
  0
VERTEX
  8
8
  10
-264.856079
  20
884.825195
  0
SEQEND
  0
TEXT
  8
8
  10
-13.936882
  20
884.836548
  40
0.250000
  50
0.000000
  1
# 83
  7
STANDARD
  0
TEXT
  8
8
  10
-264.856079
  20
884.825195
  40
0.250000
  50
0.000000
  1
# 84
  7
STANDARD
  0
POLYLINE
  8
85
  66
1
  70
0
  250
1
  0
VERTEX
  8
85
  10
-13.936882
  20
884.836548
  0
VERTEX
  8
85
  10
-264.856079
  20
884.825195
  0
SEQEND
  0
POINT
  8
2
  10
-13.936882
  20
884.836548
  0
POINT
  8
2
  10
-264.856079
  20
884.825195
  0
POLYLINE
  8
8
  66
1
  70
0
  250
0
  0
VERTEX
  8
8
  10
-13.946678
  20
1175.990967
  0
VERTEX
  8
8
  10
-17.696678
  20
1174.986084
  0
VERTEX
  8
8
  10
-20.442078
  20
1172.240967
  0
VERTEX
  8
8
  10
-21.446678
  20
1168.490967
  0
VERTEX
  8
8
  10
-20.442078
  20
1164.740967
  0
VERTEX
  8
8
  10
-17.696678
  20
1161.995850
  0
VERTEX
  8
8
  10
-13.946678
  20
1160.990967
  0
SEQEND
  0
TEXT
  8
8
  10
-13.946678
  20
1175.990967
  40
0.250000
  50
0.000000
  1
# 81
  7
STANDARD
  0
TEXT
  8
8
  10
-13.946678
  20
1160.990967
  40
0.250000
  50
0.000000
  1
# 82
  7
STANDARD
  0
POLYLINE
  8
85
  66
1
  70
0
  250
1
  0
VERTEX
  8
85
  10
-13.946678
  20
1175.990967
  0
VERTEX
  8
85
  10
-15.887390
  20
1175.637451
  0
VERTEX
  8
85
  10
-17.696678
  20
1174.986084
  0
VERTEX
  8
85
  10
-19.249022
  20
1173.819458
  0
VERTEX
  8
85
  10
-20.442078
  20
1172.240967
  0
VERTEX
  8
85
  10
-21.189724
  20
1170.422974
  0
VERTEX
  8
85
  10
-21.446678
  20
1168.490967
  0
VERTEX
  8
85
  10
-21.189713
  20
1166.558960
  0
VERTEX
  8
85
  10
-20.442078
  20
1164.740967
  0
VERTEX
  8
85
  10
-19.249025
  20
1163.162476
  0
VERTEX
  8
85
  10
-17.696678
  20
1161.995850
  0
VERTEX
  8
85
  10
-15.887393
  20
1161.344482
  0
VERTEX
  8
85
  10
-13.946678
  20
1160.990967
  0
SEQEND
  0
POINT
  8
2
  10
-13.946678
  20
1175.990967
  0
POINT
  8
2
  10
-13.946678
  20
1160.990967
  0
POINT
  8
3
  10
-17.696678
  20
1174.986084
  0
POINT
  8
3
  10
-20.442078
  20
1172.240967
  0
POINT
  8
3
  10
-21.446678
  20
1168.490967
  0
POINT
  8
3
  10
-20.442078
  20
1164.740967
  0
POINT
  8
3
  10
-17.696678
  20
1161.995850
  0
POLYLINE
  8
8
  66
1
  70
0
  250
0
  0
VERTEX
  8
8
  10
-14.077881
  20
1315.073975
  0
VERTEX
  8
8
  10
-269.761475
  20
1315.064331
  0
SEQEND
  0
TEXT
  8
8
  10
-14.077881
  20
1315.073975
  40
0.250000
  50
0.000000
  1
# 79
  7
STANDARD
  0
TEXT
  8
8
  10
-269.761475
  20
1315.064331
  40
0.250000
  50
0.000000
  1
# 80
  7
STANDARD
  0
POLYLINE
  8
85
  66
1
  70
0
  250
1
  0
VERTEX
  8
85
  10
-14.077881
  20
1315.073975
  0
VERTEX
  8
85
  10
-269.761475
  20
1315.064331
  0
SEQEND
  0
POINT
  8
2
  10
-14.077881
  20
1315.073975
  0
POINT
  8
2
  10
-269.761475
  20
1315.064331
  0
POLYLINE
  8
8
  66
1
  70
0
  250
0
  0
VERTEX
  8
8
  10
-13.936279
  20
865.836548
  0
VERTEX
  8
8
  10
-13.955177
  20
1415.255249
  0
SEQEND
  0
TEXT
  8
8
  10
-13.936279
  20
865.836548
  40
0.250000
  50
0.000000
  1
# 77
  7
STANDARD
  0
TEXT
  8
8
  10
-13.955177
  20
1415.255249
  40
0.250000
  50
0.000000
  1
# 78
  7
STANDARD
  0
POLYLINE
  8
85
  66
1
  70
0
  250
1
  0
VERTEX
  8
85
  10
-13.936279
  20
865.836548
  0
VERTEX
  8
85
  10
-13.955177
  20
1415.255249
  0
SEQEND
  0
POINT
  8
2
  10
-13.936279
  20
865.836548
  0
POINT
  8
2
  10
-13.955177
  20
1415.255249
  0
POLYLINE
  8
8
  66
1
  70
0
  250
0
  0
VERTEX
  8
8
  10
-13.945679
  20
1127.555542
  0
VERTEX
  8
8
  10
232.851715
  20
1127.564697
  0
SEQEND
  0
TEXT
  8
8
  10
-13.945679
  20
1127.555542
  40
0.250000
  50
0.000000
  1
# 75
  7
STANDARD
  0
TEXT
  8
8
  10
232.851715
  20
1127.564697
  40
0.250000
  50
0.000000
  1
# 76
  7
STANDARD
  0
POLYLINE
  8
85
  66
1
  70
0
  250
1
  0
VERTEX
  8
85
  10
-13.945679
  20
1127.555542
  0
VERTEX
  8
85
  10
232.851715
  20
1127.564697
  0
SEQEND
  0
POINT
  8
2
  10
-13.945679
  20
1127.555542
  0
POINT
  8
2
  10
232.851715
  20
1127.564697
  0
POLYLINE
  8
8
  66
1
  70
0
  250
0
  0
VERTEX
  8
8
  10
-13.947693
  20
1183.490967
  0
VERTEX
  8
8
  10
-6.447554
  20
1181.481934
  0
VERTEX
  8
8
  10
-0.957077
  20
1175.991821
  0
VERTEX
  8
8
  10
1.053329
  20
1168.491943
  0
VERTEX
  8
8
  10
-0.956055
  20
1160.991821
  0
VERTEX
  8
8
  10
-6.445784
  20
1155.500977
  0
VERTEX
  8
8
  10
-13.945648
  20
1153.490967
  0
SEQEND
  0
TEXT
  8
8
  10
-13.947693
  20
1183.490967
  40
0.250000
  50
0.000000
  1
# 73
  7
STANDARD
  0
TEXT
  8
8
  10
-13.945648
  20
1153.490967
  40
0.250000
  50
0.000000
  1
# 74
  7
STANDARD
  0
POLYLINE
  8
85
  66
1
  70
0
  250
1
  0
VERTEX
  8
85
  10
-13.947693
  20
1183.490967
  0
VERTEX
  8
85
  10
-11.990395
  20
1183.174683
  0
VERTEX
  8
85
  10
-10.066115
  20
1182.784302
  0
VERTEX
  8
85
  10
-8.207589
  20
1182.245117
  0
VERTEX
  8
85
  10
-6.447554
  20
1181.481934
  0
VERTEX
  8
85
  10
-5.131852
  20
1180.670776
  0
VERTEX
  8
85
  10
-3.912699
  20
1179.692871
  0
VERTEX
  8
85
  10
-2.802350
  20
1178.571533
  0
VERTEX
  8
85
  10
-1.813057
  20
1177.330078
  0
VERTEX
  8
85
  10
-0.957077
  20
1175.991821
  0
VERTEX
  8
85
  10
-0.245452
  20
1174.579102
  0
VERTEX
  8
85
  10
0.315912
  20
1173.108398
  0
VERTEX
  8
85
  10
0.722504
  20
1171.594116
  0
VERTEX
  8
85
  10
0.969814
  20
1170.050537
  0
VERTEX
  8
85
  10
1.053329
  20
1168.491943
  0
VERTEX
  8
85
  10
0.970039
  20
1166.933350
  0
VERTEX
  8
85
  10
0.722949
  20
1165.389771
  0
VERTEX
  8
85
  10
0.316563
  20
1163.875366
  0
VERTEX
  8
85
  10
-0.244607
  20
1162.404541
  0
VERTEX
  8
85
  10
-0.956055
  20
1160.991821
  0
VERTEX
  8
85
  10
-1.811856
  20
1159.653442
  0
VERTEX
  8
85
  10
-2.800981
  20
1158.411865
  0
VERTEX
  8
85
  10
-3.911179
  20
1157.290405
  0
VERTEX
  8
85
  10
-5.130198
  20
1156.312256
  0
VERTEX
  8
85
  10
-6.445784
  20
1155.500977
  0
VERTEX
  8
85
  10
-8.205721
  20
1154.737671
  0
VERTEX
  8
85
  10
-10.064175
  20
1154.198120
  0
VERTEX
  8
85
  10
-11.988398
  20
1153.807495
  0
VERTEX
  8
85
  10
-13.945648
  20
1153.490967
  0
SEQEND
  0
POINT
  8
2
  10
-13.947693
  20
1183.490967
  0
POINT
  8
2
  10
-13.945648
  20
1153.490967
  0
POINT
  8
3
  10
-6.447554
  20
1181.481934
  0
POINT
  8
3
  10
-0.957077
  20
1175.991821
  0
POINT
  8
3
  10
1.053329
  20
1168.491943
  0
POINT
  8
3
  10
-0.956055
  20
1160.991821
  0
POINT
  8
3
  10
-6.445784
  20
1155.500977
  0
POLYLINE
  8
8
  66
1
  70
0
  250
0
  0
VERTEX
  8
8
  10
-13.936943
  20
890.836426
  0
VERTEX
  8
8
  10
236.981598
  20
890.842407
  0
SEQEND
  0
TEXT
  8
8
  10
-13.936943
  20
890.836426
  40
0.250000
  50
0.000000
  1
# 71
  7
STANDARD
  0
TEXT
  8
8
  10
236.981598
  20
890.842407
  40
0.250000
  50
0.000000
  1
# 72
  7
STANDARD
  0
POLYLINE
  8
85
  66
1
  70
0
  250
1
  0
VERTEX
  8
85
  10
-13.936943
  20
890.836426
  0
VERTEX
  8
85
  10
236.981598
  20
890.842407
  0
SEQEND
  0
POINT
  8
2
  10
-13.936943
  20
890.836426
  0
POINT
  8
2
  10
236.981598
  20
890.842407
  0
POLYLINE
  8
8
  66
1
  70
0
  250
0
  0
VERTEX
  8
8
  10
-13.937126
  20
884.836426
  0
VERTEX
  8
8
  10
236.981995
  20
884.842285
  0
SEQEND
  0
TEXT
  8
8
  10
-13.937126
  20
884.836426
  40
0.250000
  50
0.000000
  1
# 69
  7
STANDARD
  0
TEXT
  8
8
  10
236.981995
  20
884.842285
  40
0.250000
  50
0.000000
  1
# 70
  7
STANDARD
  0
POLYLINE
  8
85
  66
1
  70
0
  250
1
  0
VERTEX
  8
85
  10
-13.937126
  20
884.836426
  0
VERTEX
  8
85
  10
236.981995
  20
884.842285
  0
SEQEND
  0
POINT
  8
2
  10
-13.937126
  20
884.836426
  0
POINT
  8
2
  10
236.981995
  20
884.842285
  0
POLYLINE
  8
8
  66
1
  70
0
  250
0
  0
VERTEX
  8
8
  10
-13.947182
  20
1175.990967
  0
VERTEX
  8
8
  10
-10.197109
  20
1174.986206
  0
VERTEX
  8
8
  10
-7.451523
  20
1172.241455
  0
VERTEX
  8
8
  10
-6.446671
  20
1168.491455
  0
VERTEX
  8
8
  10
-7.451017
  20
1164.741455
  0
VERTEX
  8
8
  10
-10.196228
  20
1161.996094
  0
VERTEX
  8
8
  10
-13.946159
  20
1160.990967
  0
SEQEND
  0
TEXT
  8
8
  10
-13.947182
  20
1175.990967
  40
0.250000
  50
0.000000
  1
# 67
  7
STANDARD
  0
TEXT
  8
8
  10
-13.946159
  20
1160.990967
  40
0.250000
  50
0.000000
  1
# 68
  7
STANDARD
  0
POLYLINE
  8
85
  66
1
  70
0
  250
1
  0
VERTEX
  8
85
  10
-13.947182
  20
1175.990967
  0
VERTEX
  8
85
  10
-12.006454
  20
1175.637451
  0
VERTEX
  8
85
  10
-10.197109
  20
1174.986206
  0
VERTEX
  8
85
  10
-8.644693
  20
1173.819702
  0
VERTEX
  8
85
  10
-7.451523
  20
1172.241455
  0
VERTEX
  8
85
  10
-6.703745
  20
1170.423462
  0
VERTEX
  8
85
  10
-6.446671
  20
1168.491455
  0
VERTEX
  8
85
  10
-6.703507
  20
1166.559448
  0
VERTEX
  8
85
  10
-7.451017
  20
1164.741455
  0
VERTEX
  8
85
  10
-8.643962
  20
1163.162842
  0
VERTEX
  8
85
  10
-10.196228
  20
1161.996094
  0
VERTEX
  8
85
  10
-12.005468
  20
1161.344604
  0
VERTEX
  8
85
  10
-13.946159
  20
1160.990967
  0
SEQEND
  0
POINT
  8
2
  10
-13.947182
  20
1175.990967
  0
POINT
  8
2
  10
-13.946159
  20
1160.990967
  0
POINT
  8
3
  10
-10.197109
  20
1174.986206
  0
POINT
  8
3
  10
-7.451523
  20
1172.241455
  0
POINT
  8
3
  10
-6.446671
  20
1168.491455
  0
POINT
  8
3
  10
-7.451017
  20
1164.741455
  0
POINT
  8
3
  10
-10.196228
  20
1161.996094
  0
POLYLINE
  8
8
  66
1
  70
0
  250
0
  0
VERTEX
  8
8
  10
-13.825470
  20
1315.073853
  0
VERTEX
  8
8
  10
241.858124
  20
1315.082153
  0
SEQEND
  0
TEXT
  8
8
  10
-13.825470
  20
1315.073853
  40
0.250000
  50
0.000000
  1
# 65
  7
STANDARD
  0
TEXT
  8
8
  10
241.858124
  20
1315.082153
  40
0.250000
  50
0.000000
  1
# 66
  7
STANDARD
  0
POLYLINE
  8
85
  66
1
  70
0
  250
1
  0
VERTEX
  8
85
  10
-13.825470
  20
1315.073853
  0
VERTEX
  8
85
  10
241.858124
  20
1315.082153
  0
SEQEND
  0
POINT
  8
2
  10
-13.825470
  20
1315.073853
  0
POINT
  8
2
  10
241.858124
  20
1315.082153
  0
POLYLINE
  8
8
  66
1
  70
0
  250
0
  0
VERTEX
  8
8
  10
-13.936264
  20
865.836426
  0
VERTEX
  8
8
  10
-13.955162
  20
1415.255249
  0
SEQEND
  0
TEXT
  8
8
  10
-13.936264
  20
865.836426
  40
0.250000
  50
0.000000
  1
# 63
  7
STANDARD
  0
TEXT
  8
8
  10
-13.955162
  20
1415.255249
  40
0.250000
  50
0.000000
  1
# 64
  7
STANDARD
  0
POLYLINE
  8
85
  66
1
  70
0
  250
1
  0
VERTEX
  8
85
  10
-13.936264
  20
865.836426
  0
VERTEX
  8
85
  10
-13.955162
  20
1415.255249
  0
SEQEND
  0
POINT
  8
2
  10
-13.936264
  20
865.836426
  0
POINT
  8
2
  10
-13.955162
  20
1415.255249
  0
TEXT
  8
1
  10
-13.951675
  20
1215.855225
  50
0.000000
  1
PIECE NAME: Body_Front
  7
STANDARD
  0
TEXT
  8
1
  10
-13.951675
  20
1210.855225
  50
0.000000
  1
SIZE: M
  7
STANDARD
  0
TEXT
  8
1
  10
-13.951675
  20
1200.855225
  50
0.000000
  1
QUANTITY: 1
  7
STANDARD
  0
ENDBLK
  0
BLOCK
  8
1
  2
Body_Back_M
  70
64
  10
0
  20
0
  0
POLYLINE
  8
1
  66
1
  70
1
  250
2
  0
VERTEX
  8
1
  10
1158.384888
  20
866.473083
  0
VERTEX
  8
1
  10
907.480530
  20
866.481689
  0
VERTEX
  8
1
  10
911.609009
  20
1128.185913
  0
VERTEX
  8
1
  10
909.912903
  20
1175.325073
  0
VERTEX
  8
1
  10
907.971924
  20
1222.399536
  0
VERTEX
  8
1
  10
905.650208
  20
1269.174805
  0
VERTEX
  8
1
  10
902.630737
  20
1315.710327
  0
VERTEX
  8
1
  10
912.425049
  20
1323.237671
  0
VERTEX
  8
1
  10
920.280090
  20
1332.169922
  0
VERTEX
  8
1
  10
926.298889
  20
1342.649292
  0
VERTEX
  8
1
  10
930.433472
  20
1354.093628
  0
VERTEX
  8
1
  10
932.558105
  20
1365.977295
  0
VERTEX
  8
1
  10
933.447998
  20
1378.146118
  0
VERTEX
  8
1
  10
933.985840
  20
1390.273926
  0
VERTEX
  8
1
  10
933.908325
  20
1402.416138
  0
VERTEX
  8
1
  10
933.226562
  20
1414.535889
  0
VERTEX
  8
1
  10
932.177429
  20
1425.207031
  0
VERTEX
  8
1
  10
932.013672
  20
1426.618530
  0
VERTEX
  8
1
  10
930.866089
  20
1435.120361
  0
VERTEX
  8
1
  10
930.328003
  20
1438.640625
  0
VERTEX
  8
1
  10
928.228210
  20
1450.600708
  0
VERTEX
  8
1
  10
925.775269
  20
1462.491089
  0
VERTEX
  8
1
  10
923.027405
  20
1474.319336
  0
VERTEX
  8
1
  10
920.061157
  20
1486.092896
  0
VERTEX
  8
1
  10
916.886841
  20
1497.813232
  0
VERTEX
  8
1
  10
913.575500
  20
1509.496338
  0
VERTEX
  8
1
  10
910.025879
  20
1521.105957
  0
VERTEX
  8
1
  10
906.148315
  20
1532.607788
  0
VERTEX
  8
1
  10
901.971985
  20
1544.013184
  0
VERTEX
  8
1
  10
912.715576
  20
1549.068359
  0
VERTEX
  8
1
  10
928.225830
  20
1555.709351
  0
VERTEX
  8
1
  10
943.997375
  20
1561.705688
  0
VERTEX
  8
1
  10
960.002075
  20
1567.045776
  0
VERTEX
  8
1
  10
976.181091
  20
1571.836914
  0
VERTEX
  8
1
  10
1047.521606
  20
1592.688110
  0
VERTEX
  8
1
  10
1050.686768
  20
1587.015503
  0
VERTEX
  8
1
  10
1054.140503
  20
1581.841431
  0
VERTEX
  8
1
  10
1058.017212
  20
1576.855957
  0
VERTEX
  8
1
  10
1062.311646
  20
1572.242920
  0
VERTEX
  8
1
  10
1067.076416
  20
1568.108643
  0
VERTEX
  8
1
  10
1072.222778
  20
1564.454224
  0
VERTEX
  8
1
  10
1077.680908
  20
1561.291138
  0
VERTEX
  8
1
  10
1083.412598
  20
1558.657227
  0
VERTEX
  8
1
  10
1089.375854
  20
1556.617188
  0
VERTEX
  8
1
  10
1095.499390
  20
1555.068604
  0
VERTEX
  8
1
  10
1101.706421
  20
1553.957031
  0
VERTEX
  8
1
  10
1107.974976
  20
1553.176758
  0
VERTEX
  8
1
  10
1120.561035
  20
1552.226440
  0
VERTEX
  8
1
  10
1133.174561
  20
1551.725342
  0
VERTEX
  8
1
  10
1158.409058
  20
1550.914673
  0
VERTEX
  8
1
  10
1183.643677
  20
1551.723755
  0
VERTEX
  8
1
  10
1196.257080
  20
1552.223389
  0
VERTEX
  8
1
  10
1208.843262
  20
1553.173096
  0
VERTEX
  8
1
  10
1215.111328
  20
1553.953369
  0
VERTEX
  8
1
  10
1221.318848
  20
1555.064453
  0
VERTEX
  8
1
  10
1227.442627
  20
1556.612061
  0
VERTEX
  8
1
  10
1233.405884
  20
1558.652100
  0
VERTEX
  8
1
  10
1239.137817
  20
1561.285645
  0
VERTEX
  8
1
  10
1244.595581
  20
1564.447998
  0
VERTEX
  8
1
  10
1249.742432
  20
1568.102539
  0
VERTEX
  8
1
  10
1254.507812
  20
1572.236084
  0
VERTEX
  8
1
  10
1258.802490
  20
1576.848633
  0
VERTEX
  8
1
  10
1262.678955
  20
1581.834229
  0
VERTEX
  8
1
  10
1266.133545
  20
1587.008057
  0
VERTEX
  8
1
  10
1269.299194
  20
1592.680176
  0
VERTEX
  8
1
  10
1340.638184
  20
1571.824219
  0
VERTEX
  8
1
  10
1356.816895
  20
1567.032227
  0
VERTEX
  8
1
  10
1372.821167
  20
1561.690674
  0
VERTEX
  8
1
  10
1388.592407
  20
1555.693726
  0
VERTEX
  8
1
  10
1404.102173
  20
1549.051270
  0
VERTEX
  8
1
  10
1414.845215
  20
1543.995239
  0
VERTEX
  8
1
  10
1410.668213
  20
1532.590088
  0
VERTEX
  8
1
  10
1406.789917
  20
1521.088867
  0
VERTEX
  8
1
  10
1403.239502
  20
1509.479248
  0
VERTEX
  8
1
  10
1399.927246
  20
1497.796387
  0
VERTEX
  8
1
  10
1396.752075
  20
1486.076172
  0
VERTEX
  8
1
  10
1393.785156
  20
1474.302856
  0
VERTEX
  8
1
  10
1391.036377
  20
1462.474976
  0
VERTEX
  8
1
  10
1388.582642
  20
1450.585083
  0
VERTEX
  8
1
  10
1386.482056
  20
1438.624634
  0
VERTEX
  8
1
  10
1385.943604
  20
1435.104736
  0
VERTEX
  8
1
  10
1384.795654
  20
1426.603149
  0
VERTEX
  8
1
  10
1384.631714
  20
1425.191650
  0
VERTEX
  8
1
  10
1383.581787
  20
1414.520020
  0
VERTEX
  8
1
  10
1382.899292
  20
1402.400391
  0
VERTEX
  8
1
  10
1382.820923
  20
1390.258179
  0
VERTEX
  8
1
  10
1383.357910
  20
1378.130371
  0
VERTEX
  8
1
  10
1384.246826
  20
1365.961670
  0
VERTEX
  8
1
  10
1386.370728
  20
1354.077637
  0
VERTEX
  8
1
  10
1390.504639
  20
1342.633057
  0
VERTEX
  8
1
  10
1396.522461
  20
1332.153198
  0
VERTEX
  8
1
  10
1404.376953
  20
1323.220459
  0
VERTEX
  8
1
  10
1414.170898
  20
1315.692383
  0
VERTEX
  8
1
  10
1411.148193
  20
1269.157227
  0
VERTEX
  8
1
  10
1408.823120
  20
1222.382446
  0
VERTEX
  8
1
  10
1406.879028
  20
1175.307739
  0
VERTEX
  8
1
  10
1405.179688
  20
1128.169067
  0
VERTEX
  8
1
  10
1409.289795
  20
866.464355
  0
SEQEND
  0
TEXT
  8
1
  10
1158.384888
  20
866.473083
  40
0.250000
  50
0.000000
  1
# 51
  7
STANDARD
  0
TEXT
  8
1
  10
907.480530
  20
866.481689
  40
0.250000
  50
0.000000
  1
# 52
  7
STANDARD
  0
TEXT
  8
1
  10
911.609009
  20
1128.185913
  40
0.250000
  50
0.000000
  1
# 53
  7
STANDARD
  0
TEXT
  8
1
  10
902.630737
  20
1315.710327
  40
0.250000
  50
0.000000
  1
# 54
  7
STANDARD
  0
TEXT
  8
1
  10
901.971985
  20
1544.013184
  40
0.250000
  50
0.000000
  1
# 55
  7
STANDARD
  0
TEXT
  8
1
  10
1047.521606
  20
1592.688110
  40
0.250000
  50
0.000000
  1
# 56
  7
STANDARD
  0
TEXT
  8
1
  10
1158.409058
  20
1550.914673
  40
0.250000
  50
0.000000
  1
# 57
  7
STANDARD
  0
TEXT
  8
1
  10
1269.299194
  20
1592.680176
  40
0.250000
  50
0.000000
  1
# 58
  7
STANDARD
  0
TEXT
  8
1
  10
1414.845215
  20
1543.995239
  40
0.250000
  50
0.000000
  1
# 59
  7
STANDARD
  0
TEXT
  8
1
  10
1414.170898
  20
1315.692383
  40
0.250000
  50
0.000000
  1
# 60
  7
STANDARD
  0
TEXT
  8
1
  10
1405.179688
  20
1128.169067
  40
0.250000
  50
0.000000
  1
# 61
  7
STANDARD
  0
TEXT
  8
1
  10
1409.289795
  20
866.464355
  40
0.250000
  50
0.000000
  1
# 62
  7
STANDARD
  0
POLYLINE
  8
84
  66
1
  70
1
  250
2
  0
VERTEX
  8
84
  10
1158.384888
  20
866.473083
  0
VERTEX
  8
84
  10
907.480530
  20
866.481689
  0
VERTEX
  8
84
  10
907.480530
  20
866.481689
  0
VERTEX
  8
84
  10
911.609009
  20
1128.185913
  0
VERTEX
  8
84
  10
911.609009
  20
1128.185913
  0
VERTEX
  8
84
  10
909.912903
  20
1175.325073
  0
VERTEX
  8
84
  10
909.297607
  20
1191.019409
  0
VERTEX
  8
84
  10
908.650330
  20
1206.707520
  0
VERTEX
  8
84
  10
907.971924
  20
1222.399536
  0
VERTEX
  8
84
  10
907.552124
  20
1231.759155
  0
VERTEX
  8
84
  10
907.116089
  20
1241.114624
  0
VERTEX
  8
84
  10
906.657776
  20
1250.467896
  0
VERTEX
  8
84
  10
906.171143
  20
1259.820679
  0
VERTEX
  8
84
  10
905.650208
  20
1269.174805
  0
VERTEX
  8
84
  10
904.949585
  20
1280.813965
  0
VERTEX
  8
84
  10
904.202576
  20
1292.446167
  0
VERTEX
  8
84
  10
903.424561
  20
1304.076538
  0
VERTEX
  8
84
  10
902.630737
  20
1315.710327
  0
VERTEX
  8
84
  10
902.630737
  20
1315.710327
  0
VERTEX
  8
84
  10
905.993408
  20
1318.104980
  0
VERTEX
  8
84
  10
909.282166
  20
1320.584717
  0
VERTEX
  8
84
  10
912.425049
  20
1323.237671
  0
VERTEX
  8
84
  10
914.147705
  20
1324.879028
  0
VERTEX
  8
84
  10
915.795410
  20
1326.599121
  0
VERTEX
  8
84
  10
917.367310
  20
1328.391846
  0
VERTEX
  8
84
  10
918.862488
  20
1330.250854
  0
VERTEX
  8
84
  10
920.280090
  20
1332.169922
  0
VERTEX
  8
84
  10
921.967163
  20
1334.682861
  0
VERTEX
  8
84
  10
923.529907
  20
1337.271729
  0
VERTEX
  8
84
  10
924.972412
  20
1339.929565
  0
VERTEX
  8
84
  10
926.298889
  20
1342.649292
  0
VERTEX
  8
84
  10
927.519043
  20
1345.441772
  0
VERTEX
  8
84
  10
928.618591
  20
1348.282471
  0
VERTEX
  8
84
  10
929.591919
  20
1351.167603
  0
VERTEX
  8
84
  10
930.433472
  20
1354.093628
  0
VERTEX
  8
84
  10
931.135193
  20
1357.030884
  0
VERTEX
  8
84
  10
931.714111
  20
1359.994751
  0
VERTEX
  8
84
  10
932.183899
  20
1362.979004
  0
VERTEX
  8
84
  10
932.558105
  20
1365.977295
  0
VERTEX
  8
84
  10
933.086670
  20
1372.055542
  0
VERTEX
  8
84
  10
933.447998
  20
1378.146118
  0
VERTEX
  8
84
  10
933.985840
  20
1390.273926
  0
VERTEX
  8
84
  10
934.031555
  20
1396.344971
  0
VERTEX
  8
84
  10
933.908325
  20
1402.416138
  0
VERTEX
  8
84
  10
933.638855
  20
1408.480225
  0
VERTEX
  8
84
  10
933.226562
  20
1414.535889
  0
VERTEX
  8
84
  10
932.177429
  20
1425.207031
  0
VERTEX
  8
84
  10
932.013672
  20
1426.618530
  0
VERTEX
  8
84
  10
930.866089
  20
1435.120361
  0
VERTEX
  8
84
  10
930.328003
  20
1438.640625
  0
VERTEX
  8
84
  10
929.327332
  20
1444.629150
  0
VERTEX
  8
84
  10
928.228210
  20
1450.600708
  0
VERTEX
  8
84
  10
925.775269
  20
1462.491089
  0
VERTEX
  8
84
  10
923.027405
  20
1474.319336
  0
VERTEX
  8
84
  10
920.061157
  20
1486.092896
  0
VERTEX
  8
84
  10
916.886841
  20
1497.813232
  0
VERTEX
  8
84
  10
913.575500
  20
1509.496338
  0
VERTEX
  8
84
  10
910.025879
  20
1521.105957
  0
VERTEX
  8
84
  10
906.148315
  20
1532.607788
  0
VERTEX
  8
84
  10
901.971985
  20
1544.013184
  0
VERTEX
  8
84
  10
901.971985
  20
1544.013184
  0
VERTEX
  8
84
  10
912.715576
  20
1549.068359
  0
VERTEX
  8
84
  10
917.852173
  20
1551.360107
  0
VERTEX
  8
84
  10
923.022583
  20
1553.571289
  0
VERTEX
  8
84
  10
928.225830
  20
1555.709351
  0
VERTEX
  8
84
  10
933.456787
  20
1557.778687
  0
VERTEX
  8
84
  10
938.712891
  20
1559.777832
  0
VERTEX
  8
84
  10
943.997375
  20
1561.705688
  0
VERTEX
  8
84
  10
949.308105
  20
1563.559814
  0
VERTEX
  8
84
  10
954.642334
  20
1565.339478
  0
VERTEX
  8
84
  10
960.002075
  20
1567.045776
  0
VERTEX
  8
84
  10
968.079590
  20
1569.480957
  0
VERTEX
  8
84
  10
976.181091
  20
1571.836914
  0
VERTEX
  8
84
  10
1047.521606
  20
1592.688110
  0
VERTEX
  8
84
  10
1047.521606
  20
1592.688110
  0
VERTEX
  8
84
  10
1050.686768
  20
1587.015503
  0
VERTEX
  8
84
  10
1054.140503
  20
1581.841431
  0
VERTEX
  8
84
  10
1058.017212
  20
1576.855957
  0
VERTEX
  8
84
  10
1062.311646
  20
1572.242920
  0
VERTEX
  8
84
  10
1067.076416
  20
1568.108643
  0
VERTEX
  8
84
  10
1072.222778
  20
1564.454224
  0
VERTEX
  8
84
  10
1077.680908
  20
1561.291138
  0
VERTEX
  8
84
  10
1083.412598
  20
1558.657227
  0
VERTEX
  8
84
  10
1089.375854
  20
1556.617188
  0
VERTEX
  8
84
  10
1095.499390
  20
1555.068604
  0
VERTEX
  8
84
  10
1101.706421
  20
1553.957031
  0
VERTEX
  8
84
  10
1107.974976
  20
1553.176758
  0
VERTEX
  8
84
  10
1114.261597
  20
1552.620239
  0
VERTEX
  8
84
  10
1120.561035
  20
1552.226440
  0
VERTEX
  8
84
  10
1133.174561
  20
1551.725342
  0
VERTEX
  8
84
  10
1158.409058
  20
1550.914673
  0
VERTEX
  8
84
  10
1158.409058
  20
1550.914673
  0
VERTEX
  8
84
  10
1183.643677
  20
1551.723755
  0
VERTEX
  8
84
  10
1196.257080
  20
1552.223389
  0
VERTEX
  8
84
  10
1202.556641
  20
1552.616699
  0
VERTEX
  8
84
  10
1208.843262
  20
1553.173096
  0
VERTEX
  8
84
  10
1215.111328
  20
1553.953369
  0
VERTEX
  8
84
  10
1221.318848
  20
1555.064453
  0
VERTEX
  8
84
  10
1227.442627
  20
1556.612061
  0
VERTEX
  8
84
  10
1233.405884
  20
1558.652100
  0
VERTEX
  8
84
  10
1239.137817
  20
1561.285645
  0
VERTEX
  8
84
  10
1244.595581
  20
1564.447998
  0
VERTEX
  8
84
  10
1249.742432
  20
1568.102539
  0
VERTEX
  8
84
  10
1254.507812
  20
1572.236084
  0
VERTEX
  8
84
  10
1258.802490
  20
1576.848633
  0
VERTEX
  8
84
  10
1262.678955
  20
1581.834229
  0
VERTEX
  8
84
  10
1266.133545
  20
1587.008057
  0
VERTEX
  8
84
  10
1269.299194
  20
1592.680176
  0
VERTEX
  8
84
  10
1269.299194
  20
1592.680176
  0
VERTEX
  8
84
  10
1340.638184
  20
1571.824219
  0
VERTEX
  8
84
  10
1348.739624
  20
1569.468018
  0
VERTEX
  8
84
  10
1356.816895
  20
1567.032227
  0
VERTEX
  8
84
  10
1362.176514
  20
1565.325439
  0
VERTEX
  8
84
  10
1367.510620
  20
1563.545288
  0
VERTEX
  8
84
  10
1372.821167
  20
1561.690674
  0
VERTEX
  8
84
  10
1378.105469
  20
1559.762573
  0
VERTEX
  8
84
  10
1383.361572
  20
1557.763184
  0
VERTEX
  8
84
  10
1388.592407
  20
1555.693726
  0
VERTEX
  8
84
  10
1393.795532
  20
1553.555176
  0
VERTEX
  8
84
  10
1398.965698
  20
1551.343628
  0
VERTEX
  8
84
  10
1404.102173
  20
1549.051270
  0
VERTEX
  8
84
  10
1414.845215
  20
1543.995239
  0
VERTEX
  8
84
  10
1414.845215
  20
1543.995239
  0
VERTEX
  8
84
  10
1410.668213
  20
1532.590088
  0
VERTEX
  8
84
  10
1406.789917
  20
1521.088867
  0
VERTEX
  8
84
  10
1403.239502
  20
1509.479248
  0
VERTEX
  8
84
  10
1399.927246
  20
1497.796387
  0
VERTEX
  8
84
  10
1396.752075
  20
1486.076172
  0
VERTEX
  8
84
  10
1393.785156
  20
1474.302856
  0
VERTEX
  8
84
  10
1391.036377
  20
1462.474976
  0
VERTEX
  8
84
  10
1388.582642
  20
1450.585083
  0
VERTEX
  8
84
  10
1387.483276
  20
1444.613281
  0
VERTEX
  8
84
  10
1386.482056
  20
1438.624634
  0
VERTEX
  8
84
  10
1385.943604
  20
1435.104736
  0
VERTEX
  8
84
  10
1384.795654
  20
1426.603149
  0
VERTEX
  8
84
  10
1384.631714
  20
1425.191650
  0
VERTEX
  8
84
  10
1383.581787
  20
1414.520020
  0
VERTEX
  8
84
  10
1383.169067
  20
1408.464478
  0
VERTEX
  8
84
  10
1382.899292
  20
1402.400391
  0
VERTEX
  8
84
  10
1382.775635
  20
1396.329346
  0
VERTEX
  8
84
  10
1382.820923
  20
1390.258179
  0
VERTEX
  8
84
  10
1383.357910
  20
1378.130371
  0
VERTEX
  8
84
  10
1383.718750
  20
1372.039917
  0
VERTEX
  8
84
  10
1384.246826
  20
1365.961670
  0
VERTEX
  8
84
  10
1384.620850
  20
1362.963257
  0
VERTEX
  8
84
  10
1385.090454
  20
1359.979004
  0
VERTEX
  8
84
  10
1385.669189
  20
1357.015015
  0
VERTEX
  8
84
  10
1386.370728
  20
1354.077637
  0
VERTEX
  8
84
  10
1387.212036
  20
1351.151611
  0
VERTEX
  8
84
  10
1388.185303
  20
1348.266357
  0
VERTEX
  8
84
  10
1389.284668
  20
1345.425659
  0
VERTEX
  8
84
  10
1390.504639
  20
1342.633057
  0
VERTEX
  8
84
  10
1391.830811
  20
1339.913330
  0
VERTEX
  8
84
  10
1393.273193
  20
1337.255371
  0
VERTEX
  8
84
  10
1394.835693
  20
1334.666260
  0
VERTEX
  8
84
  10
1396.522461
  20
1332.153198
  0
VERTEX
  8
84
  10
1397.939941
  20
1330.234131
  0
VERTEX
  8
84
  10
1399.435059
  20
1328.375000
  0
VERTEX
  8
84
  10
1401.006836
  20
1326.582153
  0
VERTEX
  8
84
  10
1402.654419
  20
1324.861938
  0
VERTEX
  8
84
  10
1404.376953
  20
1323.220459
  0
VERTEX
  8
84
  10
1407.519653
  20
1320.567261
  0
VERTEX
  8
84
  10
1410.808350
  20
1318.087402
  0
VERTEX
  8
84
  10
1414.170898
  20
1315.692383
  0
VERTEX
  8
84
  10
1414.170898
  20
1315.692383
  0
VERTEX
  8
84
  10
1413.376343
  20
1304.058838
  0
VERTEX
  8
84
  10
1412.597412
  20
1292.428467
  0
VERTEX
  8
84
  10
1411.849609
  20
1280.796387
  0
VERTEX
  8
84
  10
1411.148193
  20
1269.157227
  0
VERTEX
  8
84
  10
1410.501831
  20
1257.464966
  0
VERTEX
  8
84
  10
1409.906616
  20
1245.774048
  0
VERTEX
  8
84
  10
1409.350952
  20
1234.081055
  0
VERTEX
  8
84
  10
1408.823120
  20
1222.382446
  0
VERTEX
  8
84
  10
1408.143677
  20
1206.690308
  0
VERTEX
  8
84
  10
1407.495361
  20
1191.002197
  0
VERTEX
  8
84
  10
1406.879028
  20
1175.307739
  0
VERTEX
  8
84
  10
1405.179688
  20
1128.169067
  0
VERTEX
  8
84
  10
1405.179688
  20
1128.169067
  0
VERTEX
  8
84
  10
1409.289795
  20
866.464355
  0
VERTEX
  8
84
  10
1409.289795
  20
866.464355
  0
VERTEX
  8
84
  10
1158.384888
  20
866.473083
  0
SEQEND
  0
POINT
  8
2
  10
1158.384888
  20
866.473083
  0
POINT
  8
2
  10
907.480530
  20
866.481689
  0
POINT
  8
2
  10
911.609009
  20
1128.185913
  0
POINT
  8
2
  10
902.630737
  20
1315.710327
  0
POINT
  8
2
  10
901.971985
  20
1544.013184
  0
POINT
  8
2
  10
1047.521606
  20
1592.688110
  0
POINT
  8
2
  10
1158.409058
  20
1550.914673
  0
POINT
  8
2
  10
1269.299194
  20
1592.680176
  0
POINT
  8
2
  10
1414.845215
  20
1543.995239
  0
POINT
  8
2
  10
1414.170898
  20
1315.692383
  0
POINT
  8
2
  10
1405.179688
  20
1128.169067
  0
POINT
  8
2
  10
1409.289795
  20
866.464355
  0
POINT
  8
3
  10
909.912903
  20
1175.325073
  0
POINT
  8
3
  10
907.971924
  20
1222.399536
  0
POINT
  8
3
  10
905.650208
  20
1269.174805
  0
POINT
  8
3
  10
912.425049
  20
1323.237671
  0
POINT
  8
3
  10
920.280090
  20
1332.169922
  0
POINT
  8
3
  10
926.298889
  20
1342.649292
  0
POINT
  8
3
  10
930.433472
  20
1354.093628
  0
POINT
  8
3
  10
932.558105
  20
1365.977295
  0
POINT
  8
3
  10
933.447998
  20
1378.146118
  0
POINT
  8
3
  10
933.985840
  20
1390.273926
  0
POINT
  8
3
  10
933.908325
  20
1402.416138
  0
POINT
  8
3
  10
933.226562
  20
1414.535889
  0
POINT
  8
3
  10
932.177429
  20
1425.207031
  0
POINT
  8
3
  10
932.013672
  20
1426.618530
  0
POINT
  8
3
  10
930.866089
  20
1435.120361
  0
POINT
  8
3
  10
930.328003
  20
1438.640625
  0
POINT
  8
3
  10
928.228210
  20
1450.600708
  0
POINT
  8
3
  10
925.775269
  20
1462.491089
  0
POINT
  8
3
  10
923.027405
  20
1474.319336
  0
POINT
  8
3
  10
920.061157
  20
1486.092896
  0
POINT
  8
3
  10
916.886841
  20
1497.813232
  0
POINT
  8
3
  10
913.575500
  20
1509.496338
  0
POINT
  8
3
  10
910.025879
  20
1521.105957
  0
POINT
  8
3
  10
906.148315
  20
1532.607788
  0
POINT
  8
3
  10
912.715576
  20
1549.068359
  0
POINT
  8
3
  10
928.225830
  20
1555.709351
  0
POINT
  8
3
  10
943.997375
  20
1561.705688
  0
POINT
  8
3
  10
960.002075
  20
1567.045776
  0
POINT
  8
3
  10
976.181091
  20
1571.836914
  0
POINT
  8
3
  10
1050.686768
  20
1587.015503
  0
POINT
  8
3
  10
1054.140503
  20
1581.841431
  0
POINT
  8
3
  10
1058.017212
  20
1576.855957
  0
POINT
  8
3
  10
1062.311646
  20
1572.242920
  0
POINT
  8
3
  10
1067.076416
  20
1568.108643
  0
POINT
  8
3
  10
1072.222778
  20
1564.454224
  0
POINT
  8
3
  10
1077.680908
  20
1561.291138
  0
POINT
  8
3
  10
1083.412598
  20
1558.657227
  0
POINT
  8
3
  10
1089.375854
  20
1556.617188
  0
POINT
  8
3
  10
1095.499390
  20
1555.068604
  0
POINT
  8
3
  10
1101.706421
  20
1553.957031
  0
POINT
  8
3
  10
1107.974976
  20
1553.176758
  0
POINT
  8
3
  10
1120.561035
  20
1552.226440
  0
POINT
  8
3
  10
1133.174561
  20
1551.725342
  0
POINT
  8
3
  10
1183.643677
  20
1551.723755
  0
POINT
  8
3
  10
1196.257080
  20
1552.223389
  0
POINT
  8
3
  10
1208.843262
  20
1553.173096
  0
POINT
  8
3
  10
1215.111328
  20
1553.953369
  0
POINT
  8
3
  10
1221.318848
  20
1555.064453
  0
POINT
  8
3
  10
1227.442627
  20
1556.612061
  0
POINT
  8
3
  10
1233.405884
  20
1558.652100
  0
POINT
  8
3
  10
1239.137817
  20
1561.285645
  0
POINT
  8
3
  10
1244.595581
  20
1564.447998
  0
POINT
  8
3
  10
1249.742432
  20
1568.102539
  0
POINT
  8
3
  10
1254.507812
  20
1572.236084
  0
POINT
  8
3
  10
1258.802490
  20
1576.848633
  0
POINT
  8
3
  10
1262.678955
  20
1581.834229
  0
POINT
  8
3
  10
1266.133545
  20
1587.008057
  0
POINT
  8
3
  10
1340.638184
  20
1571.824219
  0
POINT
  8
3
  10
1356.816895
  20
1567.032227
  0
POINT
  8
3
  10
1372.821167
  20
1561.690674
  0
POINT
  8
3
  10
1388.592407
  20
1555.693726
  0
POINT
  8
3
  10
1404.102173
  20
1549.051270
  0
POINT
  8
3
  10
1410.668213
  20
1532.590088
  0
POINT
  8
3
  10
1406.789917
  20
1521.088867
  0
POINT
  8
3
  10
1403.239502
  20
1509.479248
  0
POINT
  8
3
  10
1399.927246
  20
1497.796387
  0
POINT
  8
3
  10
1396.752075
  20
1486.076172
  0
POINT
  8
3
  10
1393.785156
  20
1474.302856
  0
POINT
  8
3
  10
1391.036377
  20
1462.474976
  0
POINT
  8
3
  10
1388.582642
  20
1450.585083
  0
POINT
  8
3
  10
1386.482056
  20
1438.624634
  0
POINT
  8
3
  10
1385.943604
  20
1435.104736
  0
POINT
  8
3
  10
1384.795654
  20
1426.603149
  0
POINT
  8
3
  10
1384.631714
  20
1425.191650
  0
POINT
  8
3
  10
1383.581787
  20
1414.520020
  0
POINT
  8
3
  10
1382.899292
  20
1402.400391
  0
POINT
  8
3
  10
1382.820923
  20
1390.258179
  0
POINT
  8
3
  10
1383.357910
  20
1378.130371
  0
POINT
  8
3
  10
1384.246826
  20
1365.961670
  0
POINT
  8
3
  10
1386.370728
  20
1354.077637
  0
POINT
  8
3
  10
1390.504639
  20
1342.633057
  0
POINT
  8
3
  10
1396.522461
  20
1332.153198
  0
POINT
  8
3
  10
1404.376953
  20
1323.220459
  0
POINT
  8
3
  10
1411.148193
  20
1269.157227
  0
POINT
  8
3
  10
1408.823120
  20
1222.382446
  0
POINT
  8
3
  10
1406.879028
  20
1175.307739
  0
POINT
  8
4
  10
932.177368
  20
1425.207520
  30
7.000000
  39
0.000000
  50
5.618345
  0
POINT
  8
4
  10
930.866089
  20
1435.120605
  30
7.000000
  39
0.000000
  50
7.688910
  0
POINT
  8
4
  10
1385.943604
  20
1435.104736
  30
7.000000
  39
0.000000
  50
171.308105
  0
POINT
  8
4
  10
1384.631714
  20
1425.191650
  30
7.000000
  39
0.000000
  50
173.382507
  0
POINT
  8
4
  10
1158.396973
  20
1208.693848
  30
7.000000
  39
0.000000
  50
0.000000
  0
POINT
  8
4
  10
1158.396973
  20
1208.693848
  30
7.000000
  39
0.000000
  50
0.000000
  0
POINT
  8
4
  10
1158.396973
  20
1208.693848
  30
7.000000
  39
0.000000
  50
0.000000
  0
POINT
  8
4
  10
1158.396973
  20
1208.693848
  30
7.000000
  39
0.000000
  50
0.000000
  0
LINE
  8
7
  10
1158.405518
  20
1139.576172
  11
1158.411621
  21
1319.576172
  0
POLYLINE
  8
8
  66
1
  70
0
  250
0
  0
VERTEX
  8
8
  10
1158.395874
  20
1158.134033
  0
VERTEX
  8
8
  10
1150.896118
  20
1160.143311
  0
VERTEX
  8
8
  10
1145.406006
  20
1165.634033
  0
VERTEX
  8
8
  10
1143.396118
  20
1173.133789
  0
VERTEX
  8
8
  10
1145.406006
  20
1180.634033
  0
VERTEX
  8
8
  10
1150.895996
  20
1186.124268
  0
VERTEX
  8
8
  10
1158.396118
  20
1188.134033
  0
SEQEND
  0
TEXT
  8
8
  10
1158.395874
  20
1158.134033
  40
0.250000
  50
0.000000
  1
# 49
  7
STANDARD
  0
TEXT
  8
8
  10
1158.396118
  20
1188.134033
  40
0.250000
  50
0.000000
  1
# 50
  7
STANDARD
  0
POLYLINE
  8
85
  66
1
  70
0
  250
1
  0
VERTEX
  8
85
  10
1158.395874
  20
1158.134033
  0
VERTEX
  8
85
  10
1156.438721
  20
1158.450439
  0
VERTEX
  8
85
  10
1154.514526
  20
1158.840820
  0
VERTEX
  8
85
  10
1152.656006
  20
1159.380127
  0
VERTEX
  8
85
  10
1150.896118
  20
1160.143311
  0
VERTEX
  8
85
  10
1149.580444
  20
1160.954590
  0
VERTEX
  8
85
  10
1148.361328
  20
1161.932617
  0
VERTEX
  8
85
  10
1147.251099
  20
1163.054077
  0
VERTEX
  8
85
  10
1146.261841
  20
1164.295654
  0
VERTEX
  8
85
  10
1145.406006
  20
1165.634033
  0
VERTEX
  8
85
  10
1144.694458
  20
1167.046753
  0
VERTEX
  8
85
  10
1144.133179
  20
1168.517456
  0
VERTEX
  8
85
  10
1143.726685
  20
1170.031738
  0
VERTEX
  8
85
  10
1143.479492
  20
1171.575317
  0
VERTEX
  8
85
  10
1143.396118
  20
1173.133789
  0
VERTEX
  8
85
  10
1143.479492
  20
1174.692383
  0
VERTEX
  8
85
  10
1143.726685
  20
1176.236084
  0
VERTEX
  8
85
  10
1144.133179
  20
1177.750488
  0
VERTEX
  8
85
  10
1144.694458
  20
1179.221191
  0
VERTEX
  8
85
  10
1145.406006
  20
1180.634033
  0
VERTEX
  8
85
  10
1146.261841
  20
1181.972290
  0
VERTEX
  8
85
  10
1147.251099
  20
1183.213745
  0
VERTEX
  8
85
  10
1148.361328
  20
1184.335083
  0
VERTEX
  8
85
  10
1149.580444
  20
1185.312988
  0
VERTEX
  8
85
  10
1150.895996
  20
1186.124268
  0
VERTEX
  8
85
  10
1152.656128
  20
1186.887573
  0
VERTEX
  8
85
  10
1154.514526
  20
1187.427002
  0
VERTEX
  8
85
  10
1156.438843
  20
1187.817505
  0
VERTEX
  8
85
  10
1158.396118
  20
1188.134033
  0
SEQEND
  0
POINT
  8
2
  10
1158.395874
  20
1158.134033
  0
POINT
  8
2
  10
1158.396118
  20
1188.134033
  0
POINT
  8
3
  10
1150.896118
  20
1160.143311
  0
POINT
  8
3
  10
1145.406006
  20
1165.634033
  0
POINT
  8
3
  10
1143.396118
  20
1173.133789
  0
POINT
  8
3
  10
1145.406006
  20
1180.634033
  0
POINT
  8
3
  10
1150.895996
  20
1186.124268
  0
POLYLINE
  8
8
  66
1
  70
0
  250
0
  0
VERTEX
  8
8
  10
1158.396118
  20
1165.634033
  0
VERTEX
  8
8
  10
1154.646118
  20
1166.638672
  0
VERTEX
  8
8
  10
1151.900757
  20
1169.384033
  0
VERTEX
  8
8
  10
1150.896118
  20
1173.133789
  0
VERTEX
  8
8
  10
1151.900757
  20
1176.884033
  0
VERTEX
  8
8
  10
1154.646118
  20
1179.628784
  0
VERTEX
  8
8
  10
1158.396118
  20
1180.634033
  0
SEQEND
  0
TEXT
  8
8
  10
1158.396118
  20
1165.634033
  40
0.250000
  50
0.000000
  1
# 47
  7
STANDARD
  0
TEXT
  8
8
  10
1158.396118
  20
1180.634033
  40
0.250000
  50
0.000000
  1
# 48
  7
STANDARD
  0
POLYLINE
  8
85
  66
1
  70
0
  250
1
  0
VERTEX
  8
85
  10
1158.396118
  20
1165.634033
  0
VERTEX
  8
85
  10
1156.455322
  20
1165.987427
  0
VERTEX
  8
85
  10
1154.646118
  20
1166.638672
  0
VERTEX
  8
85
  10
1153.093750
  20
1167.805420
  0
VERTEX
  8
85
  10
1151.900757
  20
1169.384033
  0
VERTEX
  8
85
  10
1151.153076
  20
1171.201904
  0
VERTEX
  8
85
  10
1150.896118
  20
1173.133789
  0
VERTEX
  8
85
  10
1151.153076
  20
1175.065918
  0
VERTEX
  8
85
  10
1151.900757
  20
1176.884033
  0
VERTEX
  8
85
  10
1153.093750
  20
1178.462280
  0
VERTEX
  8
85
  10
1154.646118
  20
1179.628784
  0
VERTEX
  8
85
  10
1156.455444
  20
1180.280273
  0
VERTEX
  8
85
  10
1158.396118
  20
1180.634033
  0
SEQEND
  0
POINT
  8
2
  10
1158.396118
  20
1165.634033
  0
POINT
  8
2
  10
1158.396118
  20
1180.634033
  0
POINT
  8
3
  10
1154.646118
  20
1166.638672
  0
POINT
  8
3
  10
1151.900757
  20
1169.384033
  0
POINT
  8
3
  10
1150.896118
  20
1173.133789
  0
POINT
  8
3
  10
1151.900757
  20
1176.884033
  0
POINT
  8
3
  10
1154.646118
  20
1179.628784
  0
POLYLINE
  8
8
  66
1
  70
0
  250
0
  0
VERTEX
  8
8
  10
911.610229
  20
1128.185913
  0
VERTEX
  8
8
  10
1158.420532
  20
1128.177612
  0
SEQEND
  0
TEXT
  8
8
  10
911.610229
  20
1128.185913
  40
0.250000
  50
0.000000
  1
# 45
  7
STANDARD
  0
TEXT
  8
8
  10
1158.420532
  20
1128.177612
  40
0.250000
  50
0.000000
  1
# 46
  7
STANDARD
  0
POLYLINE
  8
85
  66
1
  70
0
  250
1
  0
VERTEX
  8
85
  10
911.610229
  20
1128.185913
  0
VERTEX
  8
85
  10
1158.420532
  20
1128.177612
  0
SEQEND
  0
POINT
  8
2
  10
911.610229
  20
1128.185913
  0
POINT
  8
2
  10
1158.420532
  20
1128.177612
  0
POLYLINE
  8
8
  66
1
  70
0
  250
0
  0
VERTEX
  8
8
  10
1158.386353
  20
891.472778
  0
VERTEX
  8
8
  10
907.481750
  20
891.481689
  0
SEQEND
  0
TEXT
  8
8
  10
1158.386353
  20
891.472778
  40
0.250000
  50
0.000000
  1
# 43
  7
STANDARD
  0
TEXT
  8
8
  10
907.481750
  20
891.481689
  40
0.250000
  50
0.000000
  1
# 44
  7
STANDARD
  0
POLYLINE
  8
85
  66
1
  70
0
  250
1
  0
VERTEX
  8
85
  10
1158.386353
  20
891.472778
  0
VERTEX
  8
85
  10
907.481750
  20
891.481689
  0
SEQEND
  0
POINT
  8
2
  10
1158.386353
  20
891.472778
  0
POINT
  8
2
  10
907.481750
  20
891.481689
  0
POLYLINE
  8
8
  66
1
  70
0
  250
0
  0
VERTEX
  8
8
  10
1158.386353
  20
885.472717
  0
VERTEX
  8
8
  10
907.481812
  20
885.481689
  0
SEQEND
  0
TEXT
  8
8
  10
1158.386353
  20
885.472717
  40
0.250000
  50
0.000000
  1
# 41
  7
STANDARD
  0
TEXT
  8
8
  10
907.481812
  20
885.481689
  40
0.250000
  50
0.000000
  1
# 42
  7
STANDARD
  0
POLYLINE
  8
85
  66
1
  70
0
  250
1
  0
VERTEX
  8
85
  10
1158.386353
  20
885.472717
  0
VERTEX
  8
85
  10
907.481812
  20
885.481689
  0
SEQEND
  0
POINT
  8
2
  10
1158.386353
  20
885.472717
  0
POINT
  8
2
  10
907.481812
  20
885.481689
  0
POLYLINE
  8
8
  66
1
  70
0
  250
0
  0
VERTEX
  8
8
  10
902.630737
  20
1315.710815
  0
VERTEX
  8
8
  10
1158.307007
  20
1315.701172
  0
SEQEND
  0
TEXT
  8
8
  10
902.630737
  20
1315.710815
  40
0.250000
  50
0.000000
  1
# 39
  7
STANDARD
  0
TEXT
  8
8
  10
1158.307007
  20
1315.701172
  40
0.250000
  50
0.000000
  1
# 40
  7
STANDARD
  0
POLYLINE
  8
85
  66
1
  70
0
  250
1
  0
VERTEX
  8
85
  10
902.630737
  20
1315.710815
  0
VERTEX
  8
85
  10
1158.307007
  20
1315.701172
  0
SEQEND
  0
POINT
  8
2
  10
902.630737
  20
1315.710815
  0
POINT
  8
2
  10
1158.307007
  20
1315.701172
  0
POLYLINE
  8
8
  66
1
  70
0
  250
0
  0
VERTEX
  8
8
  10
1054.545410
  20
1581.288696
  0
VERTEX
  8
8
  10
981.560303
  20
1559.987061
  0
VERTEX
  8
8
  10
965.010498
  20
1555.093262
  0
VERTEX
  8
8
  10
948.638428
  20
1549.637207
  0
VERTEX
  8
8
  10
932.505066
  20
1543.510742
  0
VERTEX
  8
8
  10
916.638733
  20
1536.724609
  0
VERTEX
  8
8
  10
905.546509
  20
1531.508667
  0
SEQEND
  0
TEXT
  8
8
  10
1054.545410
  20
1581.288696
  40
0.250000
  50
0.000000
  1
# 37
  7
STANDARD
  0
TEXT
  8
8
  10
905.546509
  20
1531.508667
  40
0.250000
  50
0.000000
  1
# 38
  7
STANDARD
  0
POLYLINE
  8
85
  66
1
  70
0
  250
1
  0
VERTEX
  8
85
  10
1054.545410
  20
1581.288696
  0
VERTEX
  8
85
  10
981.560303
  20
1559.987061
  0
VERTEX
  8
85
  10
973.273071
  20
1557.580811
  0
VERTEX
  8
85
  10
965.010498
  20
1555.093262
  0
VERTEX
  8
85
  10
959.527710
  20
1553.349976
  0
VERTEX
  8
85
  10
954.071045
  20
1551.531738
  0
VERTEX
  8
85
  10
948.638428
  20
1549.637207
  0
VERTEX
  8
85
  10
943.232788
  20
1547.667480
  0
VERTEX
  8
85
  10
937.856079
  20
1545.625000
  0
VERTEX
  8
85
  10
932.505066
  20
1543.510742
  0
VERTEX
  8
85
  10
927.182373
  20
1541.326172
  0
VERTEX
  8
85
  10
921.893311
  20
1539.066650
  0
VERTEX
  8
85
  10
916.638733
  20
1536.724609
  0
VERTEX
  8
85
  10
905.546509
  20
1531.508667
  0
SEQEND
  0
POINT
  8
2
  10
1054.545410
  20
1581.288696
  0
POINT
  8
2
  10
905.546509
  20
1531.508667
  0
POINT
  8
3
  10
981.560303
  20
1559.987061
  0
POINT
  8
3
  10
965.010498
  20
1555.093262
  0
POINT
  8
3
  10
948.638428
  20
1549.637207
  0
POINT
  8
3
  10
932.505066
  20
1543.510742
  0
POINT
  8
3
  10
916.638733
  20
1536.724609
  0
POLYLINE
  8
8
  66
1
  70
0
  250
0
  0
VERTEX
  8
8
  10
1158.408936
  20
1550.914795
  0
VERTEX
  8
8
  10
1158.384888
  20
866.473145
  0
SEQEND
  0
TEXT
  8
8
  10
1158.408936
  20
1550.914795
  40
0.250000
  50
0.000000
  1
# 35
  7
STANDARD
  0
TEXT
  8
8
  10
1158.384888
  20
866.473145
  40
0.250000
  50
0.000000
  1
# 36
  7
STANDARD
  0
POLYLINE
  8
85
  66
1
  70
0
  250
1
  0
VERTEX
  8
85
  10
1158.408936
  20
1550.914795
  0
VERTEX
  8
85
  10
1158.384888
  20
866.473145
  0
SEQEND
  0
POINT
  8
2
  10
1158.408936
  20
1550.914795
  0
POINT
  8
2
  10
1158.384888
  20
866.473145
  0
POLYLINE
  8
8
  66
1
  70
0
  250
0
  0
VERTEX
  8
8
  10
1158.394165
  20
1158.133911
  0
VERTEX
  8
8
  10
1165.894531
  20
1160.142944
  0
VERTEX
  8
8
  10
1171.385132
  20
1165.632812
  0
VERTEX
  8
8
  10
1173.395508
  20
1173.132935
  0
VERTEX
  8
8
  10
1171.386108
  20
1180.632812
  0
VERTEX
  8
8
  10
1165.896240
  20
1186.123901
  0
VERTEX
  8
8
  10
1158.396484
  20
1188.133911
  0
SEQEND
  0
TEXT
  8
8
  10
1158.394165
  20
1158.133911
  40
0.250000
  50
0.000000
  1
# 33
  7
STANDARD
  0
TEXT
  8
8
  10
1158.396484
  20
1188.133911
  40
0.250000
  50
0.000000
  1
# 34
  7
STANDARD
  0
POLYLINE
  8
85
  66
1
  70
0
  250
1
  0
VERTEX
  8
85
  10
1158.394165
  20
1158.133911
  0
VERTEX
  8
85
  10
1160.351562
  20
1158.450195
  0
VERTEX
  8
85
  10
1162.275879
  20
1158.840576
  0
VERTEX
  8
85
  10
1164.134399
  20
1159.379761
  0
VERTEX
  8
85
  10
1165.894531
  20
1160.142944
  0
VERTEX
  8
85
  10
1167.210205
  20
1160.954102
  0
VERTEX
  8
85
  10
1168.429443
  20
1161.931885
  0
VERTEX
  8
85
  10
1169.539795
  20
1163.053223
  0
VERTEX
  8
85
  10
1170.529053
  20
1164.294678
  0
VERTEX
  8
85
  10
1171.385132
  20
1165.632812
  0
VERTEX
  8
85
  10
1172.096802
  20
1167.045532
  0
VERTEX
  8
85
  10
1172.658081
  20
1168.516235
  0
VERTEX
  8
85
  10
1173.064697
  20
1170.030640
  0
VERTEX
  8
85
  10
1173.312012
  20
1171.574341
  0
VERTEX
  8
85
  10
1173.395508
  20
1173.132935
  0
VERTEX
  8
85
  10
1173.312134
  20
1174.691406
  0
VERTEX
  8
85
  10
1173.065063
  20
1176.234985
  0
VERTEX
  8
85
  10
1172.658691
  20
1177.749390
  0
VERTEX
  8
85
  10
1172.097534
  20
1179.220093
  0
VERTEX
  8
85
  10
1171.386108
  20
1180.632812
  0
VERTEX
  8
85
  10
1170.530273
  20
1181.971313
  0
VERTEX
  8
85
  10
1169.541138
  20
1183.212891
  0
VERTEX
  8
85
  10
1168.430908
  20
1184.334473
  0
VERTEX
  8
85
  10
1167.211914
  20
1185.312500
  0
VERTEX
  8
85
  10
1165.896240
  20
1186.123901
  0
VERTEX
  8
85
  10
1164.136353
  20
1186.887207
  0
VERTEX
  8
85
  10
1162.277954
  20
1187.426758
  0
VERTEX
  8
85
  10
1160.353760
  20
1187.817383
  0
VERTEX
  8
85
  10
1158.396484
  20
1188.133911
  0
SEQEND
  0
POINT
  8
2
  10
1158.394165
  20
1158.133911
  0
POINT
  8
2
  10
1158.396484
  20
1188.133911
  0
POINT
  8
3
  10
1165.894531
  20
1160.142944
  0
POINT
  8
3
  10
1171.385132
  20
1165.632812
  0
POINT
  8
3
  10
1173.395508
  20
1173.132935
  0
POINT
  8
3
  10
1171.386108
  20
1180.632812
  0
POINT
  8
3
  10
1165.896240
  20
1186.123901
  0
POLYLINE
  8
8
  66
1
  70
0
  250
0
  0
VERTEX
  8
8
  10
1158.394897
  20
1165.633911
  0
VERTEX
  8
8
  10
1162.145020
  20
1166.638672
  0
VERTEX
  8
8
  10
1164.890625
  20
1169.383301
  0
VERTEX
  8
8
  10
1165.895508
  20
1173.133423
  0
VERTEX
  8
8
  10
1164.891113
  20
1176.883301
  0
VERTEX
  8
8
  10
1162.145874
  20
1179.628662
  0
VERTEX
  8
8
  10
1158.395996
  20
1180.633911
  0
SEQEND
  0
TEXT
  8
8
  10
1158.394897
  20
1165.633911
  40
0.250000
  50
0.000000
  1
# 31
  7
STANDARD
  0
TEXT
  8
8
  10
1158.395996
  20
1180.633911
  40
0.250000
  50
0.000000
  1
# 32
  7
STANDARD
  0
POLYLINE
  8
85
  66
1
  70
0
  250
1
  0
VERTEX
  8
85
  10
1158.394897
  20
1165.633911
  0
VERTEX
  8
85
  10
1160.335571
  20
1165.987427
  0
VERTEX
  8
85
  10
1162.145020
  20
1166.638672
  0
VERTEX
  8
85
  10
1163.697388
  20
1167.805054
  0
VERTEX
  8
85
  10
1164.890625
  20
1169.383301
  0
VERTEX
  8
85
  10
1165.638428
  20
1171.201294
  0
VERTEX
  8
85
  10
1165.895508
  20
1173.133423
  0
VERTEX
  8
85
  10
1165.638672
  20
1175.065308
  0
VERTEX
  8
85
  10
1164.891113
  20
1176.883301
  0
VERTEX
  8
85
  10
1163.698120
  20
1178.461914
  0
VERTEX
  8
85
  10
1162.145874
  20
1179.628662
  0
VERTEX
  8
85
  10
1160.336670
  20
1180.280151
  0
VERTEX
  8
85
  10
1158.395996
  20
1180.633911
  0
SEQEND
  0
POINT
  8
2
  10
1158.394897
  20
1165.633911
  0
POINT
  8
2
  10
1158.395996
  20
1180.633911
  0
POINT
  8
3
  10
1162.145020
  20
1166.638672
  0
POINT
  8
3
  10
1164.890625
  20
1169.383301
  0
POINT
  8
3
  10
1165.895508
  20
1173.133423
  0
POINT
  8
3
  10
1164.891113
  20
1176.883301
  0
POINT
  8
3
  10
1162.145874
  20
1179.628662
  0
POLYLINE
  8
8
  66
1
  70
0
  250
0
  0
VERTEX
  8
8
  10
1405.178467
  20
1128.169067
  0
VERTEX
  8
8
  10
1158.368042
  20
1128.177612
  0
SEQEND
  0
TEXT
  8
8
  10
1405.178467
  20
1128.169067
  40
0.250000
  50
0.000000
  1
# 29
  7
STANDARD
  0
TEXT
  8
8
  10
1158.368042
  20
1128.177612
  40
0.250000
  50
0.000000
  1
# 30
  7
STANDARD
  0
POLYLINE
  8
85
  66
1
  70
0
  250
1
  0
VERTEX
  8
85
  10
1405.178467
  20
1128.169067
  0
VERTEX
  8
85
  10
1158.368042
  20
1128.177612
  0
SEQEND
  0
POINT
  8
2
  10
1405.178467
  20
1128.169067
  0
POINT
  8
2
  10
1158.368042
  20
1128.177612
  0
POLYLINE
  8
8
  66
1
  70
0
  250
0
  0
VERTEX
  8
8
  10
1158.385864
  20
891.472778
  0
VERTEX
  8
8
  10
1409.290527
  20
891.464355
  0
SEQEND
  0
TEXT
  8
8
  10
1158.385864
  20
891.472778
  40
0.250000
  50
0.000000
  1
# 27
  7
STANDARD
  0
TEXT
  8
8
  10
1409.290527
  20
891.464355
  40
0.250000
  50
0.000000
  1
# 28
  7
STANDARD
  0
POLYLINE
  8
85
  66
1
  70
0
  250
1
  0
VERTEX
  8
85
  10
1158.385864
  20
891.472778
  0
VERTEX
  8
85
  10
1409.290527
  20
891.464355
  0
SEQEND
  0
POINT
  8
2
  10
1158.385864
  20
891.472778
  0
POINT
  8
2
  10
1409.290527
  20
891.464355
  0
POLYLINE
  8
8
  66
1
  70
0
  250
0
  0
VERTEX
  8
8
  10
1158.385376
  20
885.472656
  0
VERTEX
  8
8
  10
1409.290039
  20
885.464355
  0
SEQEND
  0
TEXT
  8
8
  10
1158.385376
  20
885.472656
  40
0.250000
  50
0.000000
  1
# 25
  7
STANDARD
  0
TEXT
  8
8
  10
1409.290039
  20
885.464355
  40
0.250000
  50
0.000000
  1
# 26
  7
STANDARD
  0
POLYLINE
  8
85
  66
1
  70
0
  250
1
  0
VERTEX
  8
85
  10
1158.385376
  20
885.472656
  0
VERTEX
  8
85
  10
1409.290039
  20
885.464355
  0
SEQEND
  0
POINT
  8
2
  10
1158.385376
  20
885.472656
  0
POINT
  8
2
  10
1409.290039
  20
885.464355
  0
POLYLINE
  8
8
  66
1
  70
0
  250
0
  0
VERTEX
  8
8
  10
1414.170898
  20
1315.692871
  0
VERTEX
  8
8
  10
1158.494385
  20
1315.701050
  0
SEQEND
  0
TEXT
  8
8
  10
1414.170898
  20
1315.692871
  40
0.250000
  50
0.000000
  1
# 23
  7
STANDARD
  0
TEXT
  8
8
  10
1158.494385
  20
1315.701050
  40
0.250000
  50
0.000000
  1
# 24
  7
STANDARD
  0
POLYLINE
  8
85
  66
1
  70
0
  250
1
  0
VERTEX
  8
85
  10
1414.170898
  20
1315.692871
  0
VERTEX
  8
85
  10
1158.494385
  20
1315.701050
  0
SEQEND
  0
POINT
  8
2
  10
1414.170898
  20
1315.692871
  0
POINT
  8
2
  10
1158.494385
  20
1315.701050
  0
POLYLINE
  8
8
  66
1
  70
0
  250
0
  0
VERTEX
  8
8
  10
1262.274292
  20
1581.281250
  0
VERTEX
  8
8
  10
1335.257812
  20
1559.974487
  0
VERTEX
  8
8
  10
1351.807495
  20
1555.079590
  0
VERTEX
  8
8
  10
1368.179077
  20
1549.622803
  0
VERTEX
  8
8
  10
1384.312134
  20
1543.495361
  0
VERTEX
  8
8
  10
1400.177979
  20
1536.708008
  0
VERTEX
  8
8
  10
1411.269531
  20
1531.490845
  0
SEQEND
  0
TEXT
  8
8
  10
1262.274292
  20
1581.281250
  40
0.250000
  50
0.000000
  1
# 21
  7
STANDARD
  0
TEXT
  8
8
  10
1411.269531
  20
1531.490845
  40
0.250000
  50
0.000000
  1
# 22
  7
STANDARD
  0
POLYLINE
  8
85
  66
1
  70
0
  250
1
  0
VERTEX
  8
85
  10
1262.274292
  20
1581.281250
  0
VERTEX
  8
85
  10
1335.257812
  20
1559.974487
  0
VERTEX
  8
85
  10
1343.544922
  20
1557.567749
  0
VERTEX
  8
85
  10
1351.807495
  20
1555.079590
  0
VERTEX
  8
85
  10
1357.290161
  20
1553.336060
  0
VERTEX
  8
85
  10
1362.746582
  20
1551.517578
  0
VERTEX
  8
85
  10
1368.179077
  20
1549.622803
  0
VERTEX
  8
85
  10
1373.584717
  20
1547.652710
  0
VERTEX
  8
85
  10
1378.961182
  20
1545.609985
  0
VERTEX
  8
85
  10
1384.312134
  20
1543.495361
  0
VERTEX
  8
85
  10
1389.634766
  20
1541.310303
  0
VERTEX
  8
85
  10
1394.923584
  20
1539.050537
  0
VERTEX
  8
85
  10
1400.177979
  20
1536.708008
  0
VERTEX
  8
85
  10
1411.269531
  20
1531.490845
  0
SEQEND
  0
POINT
  8
2
  10
1262.274292
  20
1581.281250
  0
POINT
  8
2
  10
1411.269531
  20
1531.490845
  0
POINT
  8
3
  10
1335.257812
  20
1559.974487
  0
POINT
  8
3
  10
1351.807495
  20
1555.079590
  0
POINT
  8
3
  10
1368.179077
  20
1549.622803
  0
POINT
  8
3
  10
1384.312134
  20
1543.495361
  0
POINT
  8
3
  10
1400.177979
  20
1536.708008
  0
POLYLINE
  8
8
  66
1
  70
0
  250
0
  0
VERTEX
  8
8
  10
1158.409058
  20
1550.914673
  0
VERTEX
  8
8
  10
1158.384766
  20
866.473145
  0
SEQEND
  0
TEXT
  8
8
  10
1158.409058
  20
1550.914673
  40
0.250000
  50
0.000000
  1
# 19
  7
STANDARD
  0
TEXT
  8
8
  10
1158.384766
  20
866.473145
  40
0.250000
  50
0.000000
  1
# 20
  7
STANDARD
  0
POLYLINE
  8
85
  66
1
  70
0
  250
1
  0
VERTEX
  8
85
  10
1158.409058
  20
1550.914673
  0
VERTEX
  8
85
  10
1158.384766
  20
866.473145
  0
SEQEND
  0
POINT
  8
2
  10
1158.409058
  20
1550.914673
  0
POINT
  8
2
  10
1158.384766
  20
866.473145
  0
TEXT
  8
1
  10
1158.408569
  20
1229.576172
  50
0.000000
  1
PIECE NAME: Body_Back
  7
STANDARD
  0
TEXT
  8
1
  10
1158.408569
  20
1224.576172
  50
0.000000
  1
SIZE: M
  7
STANDARD
  0
TEXT
  8
1
  10
1158.408569
  20
1214.576172
  50
0.000000
  1
QUANTITY: 1
  7
STANDARD
  0
ENDBLK
  0
BLOCK
  8
1
  2
Sleeves_M
  70
64
  10
0
  20
0
  0
POLYLINE
  8
1
  66
1
  70
1
  250
2
  0
VERTEX
  8
1
  10
-796.919556
  20
1335.517822
  0
VERTEX
  8
1
  10
-790.677551
  20
1354.984619
  0
VERTEX
  8
1
  10
-784.359131
  20
1374.426758
  0
VERTEX
  8
1
  10
-777.966370
  20
1393.845093
  0
VERTEX
  8
1
  10
-771.503357
  20
1413.239014
  0
VERTEX
  8
1
  10
-782.462769
  20
1415.466187
  0
VERTEX
  8
1
  10
-793.222046
  20
1418.355957
  0
VERTEX
  8
1
  10
-803.805542
  20
1421.903931
  0
VERTEX
  8
1
  10
-814.142456
  20
1426.112183
  0
VERTEX
  8
1
  10
-824.157166
  20
1431.030396
  0
VERTEX
  8
1
  10
-833.895264
  20
1436.497437
  0
VERTEX
  8
1
  10
-843.398438
  20
1442.353149
  0
VERTEX
  8
1
  10
-852.625732
  20
1448.634766
  0
VERTEX
  8
1
  10
-861.478333
  20
1455.426147
  0
VERTEX
  8
1
  10
-868.911682
  20
1461.394653
  0
VERTEX
  8
1
  10
-878.891052
  20
1469.417847
  0
VERTEX
  8
1
  10
-887.739868
  20
1476.214478
  0
VERTEX
  8
1
  10
-896.931152
  20
1482.554565
  0
VERTEX
  8
1
  10
-906.420349
  20
1488.426758
  0
VERTEX
  8
1
  10
-916.211548
  20
1493.806885
  0
VERTEX
  8
1
  10
-926.337952
  20
1498.474854
  0
VERTEX
  8
1
  10
-936.864624
  20
1502.170654
  0
VERTEX
  8
1
  10
-947.661743
  20
1505.011475
  0
VERTEX
  8
1
  10
-955.853394
  20
1506.617554
  0
VERTEX
  8
1
  10
-965.745850
  20
1507.921631
  0
VERTEX
  8
1
  10
-977.738037
  20
1508.499268
  0
VERTEX
  8
1
  10
-989.661255
  20
1508.117920
  0
VERTEX
  8
1
  10
-1001.559448
  20
1506.790283
  0
VERTEX
  8
1
  10
-1013.305664
  20
1504.496948
  0
VERTEX
  8
1
  10
-1024.799316
  20
1501.182983
  0
VERTEX
  8
1
  10
-1036.026123
  20
1497.013428
  0
VERTEX
  8
1
  10
-1046.959839
  20
1492.141968
  0
VERTEX
  8
1
  10
-1057.563599
  20
1486.581055
  0
VERTEX
  8
1
  10
-1067.750854
  20
1480.311523
  0
VERTEX
  8
1
  10
-1069.177368
  20
1479.373047
  0
VERTEX
  8
1
  10
-1077.446289
  20
1473.749878
  0
VERTEX
  8
1
  10
-1097.084961
  20
1459.578369
  0
VERTEX
  8
1
  10
-1116.771851
  20
1445.949585
  0
VERTEX
  8
1
  10
-1126.798096
  20
1439.397095
  0
VERTEX
  8
1
  10
-1137.033203
  20
1433.195068
  0
VERTEX
  8
1
  10
-1147.590942
  20
1427.555054
  0
VERTEX
  8
1
  10
-1158.381958
  20
1422.367432
  0
VERTEX
  8
1
  10
-1169.347534
  20
1417.585327
  0
VERTEX
  8
1
  10
-1180.471924
  20
1413.239014
  0
VERTEX
  8
1
  10
-1174.007568
  20
1393.844849
  0
VERTEX
  8
1
  10
-1167.615356
  20
1374.425781
  0
VERTEX
  8
1
  10
-1161.295898
  20
1354.983643
  0
VERTEX
  8
1
  10
-1155.053223
  20
1335.516846
  0
VERTEX
  8
1
  10
-1119.249268
  20
1336.596558
  0
VERTEX
  8
1
  10
-1083.439331
  20
1337.449219
  0
VERTEX
  8
1
  10
-1047.625122
  20
1338.055908
  0
VERTEX
  8
1
  10
-1011.806030
  20
1338.415771
  0
VERTEX
  8
1
  10
-975.986938
  20
1338.548096
  0
VERTEX
  8
1
  10
-940.167236
  20
1338.415161
  0
VERTEX
  8
1
  10
-904.348145
  20
1338.055298
  0
VERTEX
  8
1
  10
-868.533936
  20
1337.448853
  0
VERTEX
  8
1
  10
-832.724060
  20
1336.596191
  0
SEQEND
  0
TEXT
  8
1
  10
-796.919556
  20
1335.517822
  40
0.250000
  50
0.000000
  1
# 14
  7
STANDARD
  0
TEXT
  8
1
  10
-771.503357
  20
1413.239014
  40
0.250000
  50
0.000000
  1
# 15
  7
STANDARD
  0
TEXT
  8
1
  10
-965.745850
  20
1507.921631
  40
0.250000
  50
0.000000
  1
# 16
  7
STANDARD
  0
TEXT
  8
1
  10
-1180.471924
  20
1413.239014
  40
0.250000
  50
0.000000
  1
# 17
  7
STANDARD
  0
TEXT
  8
1
  10
-1155.053223
  20
1335.516846
  40
0.250000
  50
0.000000
  1
# 18
  7
STANDARD
  0
POLYLINE
  8
84
  66
1
  70
1
  250
2
  0
VERTEX
  8
84
  10
-796.919556
  20
1335.517822
  0
VERTEX
  8
84
  10
-790.677551
  20
1354.984619
  0
VERTEX
  8
84
  10
-784.359131
  20
1374.426758
  0
VERTEX
  8
84
  10
-777.966370
  20
1393.845093
  0
VERTEX
  8
84
  10
-771.503357
  20
1413.239014
  0
VERTEX
  8
84
  10
-771.503357
  20
1413.239014
  0
VERTEX
  8
84
  10
-776.994995
  20
1414.298828
  0
VERTEX
  8
84
  10
-782.462769
  20
1415.466187
  0
VERTEX
  8
84
  10
-787.866089
  20
1416.820068
  0
VERTEX
  8
84
  10
-793.222046
  20
1418.355957
  0
VERTEX
  8
84
  10
-798.540283
  20
1420.051636
  0
VERTEX
  8
84
  10
-803.805542
  20
1421.903931
  0
VERTEX
  8
84
  10
-809.010376
  20
1423.919312
  0
VERTEX
  8
84
  10
-814.142456
  20
1426.112183
  0
VERTEX
  8
84
  10
-819.189575
  20
1428.489746
  0
VERTEX
  8
84
  10
-824.157166
  20
1431.030396
  0
VERTEX
  8
84
  10
-829.057556
  20
1433.708252
  0
VERTEX
  8
84
  10
-833.895264
  20
1436.497437
  0
VERTEX
  8
84
  10
-838.675415
  20
1439.378540
  0
VERTEX
  8
84
  10
-843.398438
  20
1442.353149
  0
VERTEX
  8
84
  10
-848.056519
  20
1445.429688
  0
VERTEX
  8
84
  10
-852.625732
  20
1448.634766
  0
VERTEX
  8
84
  10
-857.088501
  20
1451.982056
  0
VERTEX
  8
84
  10
-861.478333
  20
1455.426147
  0
VERTEX
  8
84
  10
-868.911682
  20
1461.394653
  0
VERTEX
  8
84
  10
-878.891052
  20
1469.417847
  0
VERTEX
  8
84
  10
-883.282593
  20
1472.859619
  0
VERTEX
  8
84
  10
-887.739868
  20
1476.214478
  0
VERTEX
  8
84
  10
-892.292542
  20
1479.446167
  0
VERTEX
  8
84
  10
-896.931152
  20
1482.554565
  0
VERTEX
  8
84
  10
-901.640625
  20
1485.547729
  0
VERTEX
  8
84
  10
-906.420349
  20
1488.426758
  0
VERTEX
  8
84
  10
-911.276611
  20
1491.187866
  0
VERTEX
  8
84
  10
-916.211548
  20
1493.806885
  0
VERTEX
  8
84
  10
-921.225098
  20
1496.250244
  0
VERTEX
  8
84
  10
-926.337952
  20
1498.474854
  0
VERTEX
  8
84
  10
-929.807861
  20
1499.815308
  0
VERTEX
  8
84
  10
-933.318542
  20
1501.043823
  0
VERTEX
  8
84
  10
-936.864624
  20
1502.170654
  0
VERTEX
  8
84
  10
-942.237610
  20
1503.687988
  0
VERTEX
  8
84
  10
-947.661743
  20
1505.011475
  0
VERTEX
  8
84
  10
-955.853394
  20
1506.617554
  0
VERTEX
  8
84
  10
-965.745850
  20
1507.921631
  0
VERTEX
  8
84
  10
-965.745850
  20
1507.921631
  0
VERTEX
  8
84
  10
-971.740051
  20
1508.287231
  0
VERTEX
  8
84
  10
-977.738037
  20
1508.499268
  0
VERTEX
  8
84
  10
-981.714722
  20
1508.489868
  0
VERTEX
  8
84
  10
-985.689575
  20
1508.358643
  0
VERTEX
  8
84
  10
-989.661255
  20
1508.117920
  0
VERTEX
  8
84
  10
-993.639160
  20
1507.776733
  0
VERTEX
  8
84
  10
-997.605164
  20
1507.335449
  0
VERTEX
  8
84
  10
-1001.559448
  20
1506.790283
  0
VERTEX
  8
84
  10
-1005.496826
  20
1506.138550
  0
VERTEX
  8
84
  10
-1009.412964
  20
1505.375854
  0
VERTEX
  8
84
  10
-1013.305664
  20
1504.496948
  0
VERTEX
  8
84
  10
-1017.167603
  20
1503.500244
  0
VERTEX
  8
84
  10
-1020.998230
  20
1502.392822
  0
VERTEX
  8
84
  10
-1024.799316
  20
1501.182983
  0
VERTEX
  8
84
  10
-1030.447998
  20
1499.193115
  0
VERTEX
  8
84
  10
-1036.026123
  20
1497.013428
  0
VERTEX
  8
84
  10
-1041.530273
  20
1494.661621
  0
VERTEX
  8
84
  10
-1046.959839
  20
1492.141968
  0
VERTEX
  8
84
  10
-1052.310059
  20
1489.452759
  0
VERTEX
  8
84
  10
-1057.563599
  20
1486.581055
  0
VERTEX
  8
84
  10
-1062.704346
  20
1483.523071
  0
VERTEX
  8
84
  10
-1067.750854
  20
1480.311523
  0
VERTEX
  8
84
  10
-1069.177368
  20
1479.373047
  0
VERTEX
  8
84
  10
-1077.446289
  20
1473.749878
  0
VERTEX
  8
84
  10
-1087.288086
  20
1466.696045
  0
VERTEX
  8
84
  10
-1097.084961
  20
1459.578369
  0
VERTEX
  8
84
  10
-1101.963379
  20
1456.107056
  0
VERTEX
  8
84
  10
-1106.870605
  20
1452.680542
  0
VERTEX
  8
84
  10
-1111.806885
  20
1449.295654
  0
VERTEX
  8
84
  10
-1116.771851
  20
1445.949585
  0
VERTEX
  8
84
  10
-1126.798096
  20
1439.397095
  0
VERTEX
  8
84
  10
-1131.879150
  20
1436.235229
  0
VERTEX
  8
84
  10
-1137.033203
  20
1433.195068
  0
VERTEX
  8
84
  10
-1142.275391
  20
1430.307251
  0
VERTEX
  8
84
  10
-1147.590942
  20
1427.555054
  0
VERTEX
  8
84
  10
-1152.962891
  20
1424.912231
  0
VERTEX
  8
84
  10
-1158.381958
  20
1422.367432
  0
VERTEX
  8
84
  10
-1163.840332
  20
1419.919434
  0
VERTEX
  8
84
  10
-1169.347534
  20
1417.585327
  0
VERTEX
  8
84
  10
-1180.471924
  20
1413.239014
  0
VERTEX
  8
84
  10
-1180.471924
  20
1413.239014
  0
VERTEX
  8
84
  10
-1174.007568
  20
1393.844849
  0
VERTEX
  8
84
  10
-1167.615356
  20
1374.425781
  0
VERTEX
  8
84
  10
-1161.295898
  20
1354.983643
  0
VERTEX
  8
84
  10
-1155.053223
  20
1335.516846
  0
VERTEX
  8
84
  10
-1155.053223
  20
1335.516846
  0
VERTEX
  8
84
  10
-1137.151733
  20
1336.074341
  0
VERTEX
  8
84
  10
-1119.249268
  20
1336.596558
  0
VERTEX
  8
84
  10
-1101.345093
  20
1337.055054
  0
VERTEX
  8
84
  10
-1083.439331
  20
1337.449219
  0
VERTEX
  8
84
  10
-1065.532715
  20
1337.783447
  0
VERTEX
  8
84
  10
-1047.625122
  20
1338.055908
  0
VERTEX
  8
84
  10
-1029.715942
  20
1338.264771
  0
VERTEX
  8
84
  10
-1011.806030
  20
1338.415771
  0
VERTEX
  8
84
  10
-993.896606
  20
1338.513062
  0
VERTEX
  8
84
  10
-975.986938
  20
1338.548096
  0
VERTEX
  8
84
  10
-958.077026
  20
1338.512695
  0
VERTEX
  8
84
  10
-940.167236
  20
1338.415161
  0
VERTEX
  8
84
  10
-922.257385
  20
1338.264038
  0
VERTEX
  8
84
  10
-904.348145
  20
1338.055298
  0
VERTEX
  8
84
  10
-886.440552
  20
1337.783081
  0
VERTEX
  8
84
  10
-868.533936
  20
1337.448853
  0
VERTEX
  8
84
  10
-850.628235
  20
1337.054688
  0
VERTEX
  8
84
  10
-832.724060
  20
1336.596191
  0
VERTEX
  8
84
  10
-796.919556
  20
1335.517822
  0
SEQEND
  0
POINT
  8
2
  10
-796.919556
  20
1335.517822
  0
POINT
  8
2
  10
-771.503357
  20
1413.239014
  0
POINT
  8
2
  10
-965.745850
  20
1507.921631
  0
POINT
  8
2
  10
-1180.471924
  20
1413.239014
  0
POINT
  8
2
  10
-1155.053223
  20
1335.516846
  0
POINT
  8
3
  10
-790.677551
  20
1354.984619
  0
POINT
  8
3
  10
-784.359131
  20
1374.426758
  0
POINT
  8
3
  10
-777.966370
  20
1393.845093
  0
POINT
  8
3
  10
-782.462769
  20
1415.466187
  0
POINT
  8
3
  10
-793.222046
  20
1418.355957
  0
POINT
  8
3
  10
-803.805542
  20
1421.903931
  0
POINT
  8
3
  10
-814.142456
  20
1426.112183
  0
POINT
  8
3
  10
-824.157166
  20
1431.030396
  0
POINT
  8
3
  10
-833.895264
  20
1436.497437
  0
POINT
  8
3
  10
-843.398438
  20
1442.353149
  0
POINT
  8
3
  10
-852.625732
  20
1448.634766
  0
POINT
  8
3
  10
-861.478333
  20
1455.426147
  0
POINT
  8
3
  10
-868.911682
  20
1461.394653
  0
POINT
  8
3
  10
-878.891052
  20
1469.417847
  0
POINT
  8
3
  10
-887.739868
  20
1476.214478
  0
POINT
  8
3
  10
-896.931152
  20
1482.554565
  0
POINT
  8
3
  10
-906.420349
  20
1488.426758
  0
POINT
  8
3
  10
-916.211548
  20
1493.806885
  0
POINT
  8
3
  10
-926.337952
  20
1498.474854
  0
POINT
  8
3
  10
-936.864624
  20
1502.170654
  0
POINT
  8
3
  10
-947.661743
  20
1505.011475
  0
POINT
  8
3
  10
-955.853394
  20
1506.617554
  0
POINT
  8
3
  10
-977.738037
  20
1508.499268
  0
POINT
  8
3
  10
-989.661255
  20
1508.117920
  0
POINT
  8
3
  10
-1001.559448
  20
1506.790283
  0
POINT
  8
3
  10
-1013.305664
  20
1504.496948
  0
POINT
  8
3
  10
-1024.799316
  20
1501.182983
  0
POINT
  8
3
  10
-1036.026123
  20
1497.013428
  0
POINT
  8
3
  10
-1046.959839
  20
1492.141968
  0
POINT
  8
3
  10
-1057.563599
  20
1486.581055
  0
POINT
  8
3
  10
-1067.750854
  20
1480.311523
  0
POINT
  8
3
  10
-1069.177368
  20
1479.373047
  0
POINT
  8
3
  10
-1077.446289
  20
1473.749878
  0
POINT
  8
3
  10
-1097.084961
  20
1459.578369
  0
POINT
  8
3
  10
-1116.771851
  20
1445.949585
  0
POINT
  8
3
  10
-1126.798096
  20
1439.397095
  0
POINT
  8
3
  10
-1137.033203
  20
1433.195068
  0
POINT
  8
3
  10
-1147.590942
  20
1427.555054
  0
POINT
  8
3
  10
-1158.381958
  20
1422.367432
  0
POINT
  8
3
  10
-1169.347534
  20
1417.585327
  0
POINT
  8
3
  10
-1174.007568
  20
1393.844849
  0
POINT
  8
3
  10
-1167.615356
  20
1374.425781
  0
POINT
  8
3
  10
-1161.295898
  20
1354.983643
  0
POINT
  8
3
  10
-1119.249268
  20
1336.596558
  0
POINT
  8
3
  10
-1083.439331
  20
1337.449219
  0
POINT
  8
3
  10
-1047.625122
  20
1338.055908
  0
POINT
  8
3
  10
-1011.806030
  20
1338.415771
  0
POINT
  8
3
  10
-975.986938
  20
1338.548096
  0
POINT
  8
3
  10
-940.167236
  20
1338.415161
  0
POINT
  8
3
  10
-904.348145
  20
1338.055298
  0
POINT
  8
3
  10
-868.533936
  20
1337.448853
  0
POINT
  8
3
  10
-832.724060
  20
1336.596191
  0
POINT
  8
4
  10
-868.911682
  20
1461.394653
  30
7.000000
  39
0.000000
  50
231.236954
  0
POINT
  8
4
  10
-965.745850
  20
1507.921631
  30
7.000000
  39
0.000000
  50
264.500977
  0
POINT
  8
4
  10
-1069.177368
  20
1479.373047
  30
7.000000
  39
0.000000
  50
303.337036
  0
POINT
  8
4
  10
-1077.446289
  20
1473.749878
  30
7.000000
  39
0.000000
  50
304.213867
  0
POINT
  8
4
  10
-975.987610
  20
1422.008057
  30
7.000000
  39
0.000000
  50
0.000000
  0
POINT
  8
4
  10
-975.987610
  20
1422.008057
  30
7.000000
  39
0.000000
  50
0.000000
  0
POINT
  8
4
  10
-975.987610
  20
1422.008057
  30
7.000000
  39
0.000000
  50
0.000000
  0
POINT
  8
4
  10
-975.987610
  20
1422.008057
  30
7.000000
  39
0.000000
  50
0.000000
  0
LINE
  8
7
  10
-975.987671
  20
1332.008057
  11
-975.987671
  21
1512.008057
  0
POLYLINE
  8
8
  66
1
  70
0
  250
0
  0
VERTEX
  8
8
  10
-1180.507324
  20
1413.225342
  0
VERTEX
  8
8
  10
-771.503357
  20
1413.239502
  0
SEQEND
  0
TEXT
  8
8
  10
-1180.507324
  20
1413.225342
  40
0.250000
  50
0.000000
  1
# 12
  7
STANDARD
  0
TEXT
  8
8
  10
-771.503357
  20
1413.239502
  40
0.250000
  50
0.000000
  1
# 13
  7
STANDARD
  0
POLYLINE
  8
85
  66
1
  70
0
  250
1
  0
VERTEX
  8
85
  10
-1180.507324
  20
1413.225342
  0
VERTEX
  8
85
  10
-771.503357
  20
1413.239502
  0
SEQEND
  0
POINT
  8
2
  10
-1180.507324
  20
1413.225342
  0
POINT
  8
2
  10
-771.503357
  20
1413.239502
  0
POLYLINE
  8
8
  66
1
  70
0
  250
0
  0
VERTEX
  8
8
  10
-976.009521
  20
1508.716919
  0
VERTEX
  8
8
  10
-976.003479
  20
1338.717163
  0
SEQEND
  0
TEXT
  8
8
  10
-976.009521
  20
1508.716919
  40
0.250000
  50
0.000000
  1
# 10
  7
STANDARD
  0
TEXT
  8
8
  10
-976.003479
  20
1338.717163
  40
0.250000
  50
0.000000
  1
# 11
  7
STANDARD
  0
POLYLINE
  8
85
  66
1
  70
0
  250
1
  0
VERTEX
  8
85
  10
-976.009521
  20
1508.716919
  0
VERTEX
  8
85
  10
-976.003479
  20
1338.717163
  0
SEQEND
  0
POINT
  8
2
  10
-976.009521
  20
1508.716919
  0
POINT
  8
2
  10
-976.003479
  20
1338.717163
  0
TEXT
  8
1
  10
-976.005371
  20
1422.116943
  50
0.000000
  1
PIECE NAME: Sleeves
  7
STANDARD
  0
TEXT
  8
1
  10
-976.005371
  20
1417.116943
  50
0.000000
  1
SIZE: M
  7
STANDARD
  0
TEXT
  8
1
  10
-976.005371
  20
1407.116943
  50
0.000000
  1
QUANTITY: 1
  7
STANDARD
  0
ENDBLK
  0
BLOCK
  8
1
  2
Sleeves_401164_M
  70
64
  10
0
  20
0
  0
POLYLINE
  8
1
  66
1
  70
1
  250
2
  0
VERTEX
  8
1
  10
1590.120117
  20
1315.697998
  0
VERTEX
  8
1
  10
1583.878174
  20
1335.164795
  0
VERTEX
  8
1
  10
1577.559814
  20
1354.606934
  0
VERTEX
  8
1
  10
1571.166992
  20
1374.025269
  0
VERTEX
  8
1
  10
1564.703979
  20
1393.419189
  0
VERTEX
  8
1
  10
1575.663330
  20
1395.646362
  0
VERTEX
  8
1
  10
1586.422729
  20
1398.536133
  0
VERTEX
  8
1
  10
1597.006226
  20
1402.084106
  0
VERTEX
  8
1
  10
1607.343018
  20
1406.292358
  0
VERTEX
  8
1
  10
1617.357788
  20
1411.210571
  0
VERTEX
  8
1
  10
1627.095947
  20
1416.677612
  0
VERTEX
  8
1
  10
1636.599121
  20
1422.533325
  0
VERTEX
  8
1
  10
1645.826416
  20
1428.814941
  0
VERTEX
  8
1
  10
1654.678955
  20
1435.606323
  0
VERTEX
  8
1
  10
1662.112305
  20
1441.574829
  0
VERTEX
  8
1
  10
1672.091675
  20
1449.598022
  0
VERTEX
  8
1
  10
1680.940430
  20
1456.394653
  0
VERTEX
  8
1
  10
1690.131836
  20
1462.734741
  0
VERTEX
  8
1
  10
1699.620972
  20
1468.606934
  0
VERTEX
  8
1
  10
1709.412231
  20
1473.987061
  0
VERTEX
  8
1
  10
1719.538574
  20
1478.655029
  0
VERTEX
  8
1
  10
1730.065308
  20
1482.350830
  0
VERTEX
  8
1
  10
1740.862427
  20
1485.191650
  0
VERTEX
  8
1
  10
1749.053955
  20
1486.797729
  0
VERTEX
  8
1
  10
1758.946533
  20
1488.101807
  0
VERTEX
  8
1
  10
1770.938721
  20
1488.679443
  0
VERTEX
  8
1
  10
1782.861816
  20
1488.298096
  0
VERTEX
  8
1
  10
1794.760010
  20
1486.970459
  0
VERTEX
  8
1
  10
1806.506348
  20
1484.677124
  0
VERTEX
  8
1
  10
1817.999878
  20
1481.363159
  0
VERTEX
  8
1
  10
1829.226685
  20
1477.193604
  0
VERTEX
  8
1
  10
1840.160522
  20
1472.322144
  0
VERTEX
  8
1
  10
1850.764160
  20
1466.761230
  0
VERTEX
  8
1
  10
1860.951416
  20
1460.491699
  0
VERTEX
  8
1
  10
1862.377930
  20
1459.553223
  0
VERTEX
  8
1
  10
1870.646973
  20
1453.930054
  0
VERTEX
  8
1
  10
1890.285645
  20
1439.758545
  0
VERTEX
  8
1
  10
1909.972412
  20
1426.129761
  0
VERTEX
  8
1
  10
1919.998779
  20
1419.577271
  0
VERTEX
  8
1
  10
1930.233765
  20
1413.375244
  0
VERTEX
  8
1
  10
1940.791504
  20
1407.735229
  0
VERTEX
  8
1
  10
1951.582520
  20
1402.547607
  0
VERTEX
  8
1
  10
1962.548218
  20
1397.765503
  0
VERTEX
  8
1
  10
1973.672485
  20
1393.419189
  0
VERTEX
  8
1
  10
1967.208252
  20
1374.025024
  0
VERTEX
  8
1
  10
1960.815918
  20
1354.605957
  0
VERTEX
  8
1
  10
1954.496460
  20
1335.163818
  0
VERTEX
  8
1
  10
1948.253784
  20
1315.697021
  0
VERTEX
  8
1
  10
1912.449951
  20
1316.776733
  0
VERTEX
  8
1
  10
1876.640015
  20
1317.629395
  0
VERTEX
  8
1
  10
1840.825806
  20
1318.236084
  0
VERTEX
  8
1
  10
1805.006714
  20
1318.595947
  0
VERTEX
  8
1
  10
1769.187622
  20
1318.728271
  0
VERTEX
  8
1
  10
1733.367920
  20
1318.595337
  0
VERTEX
  8
1
  10
1697.548828
  20
1318.235474
  0
VERTEX
  8
1
  10
1661.734619
  20
1317.629028
  0
VERTEX
  8
1
  10
1625.924683
  20
1316.776367
  0
SEQEND
  0
TEXT
  8
1
  10
1590.120117
  20
1315.697998
  40
0.250000
  50
0.000000
  1
# 5
  7
STANDARD
  0
TEXT
  8
1
  10
1564.703979
  20
1393.419189
  40
0.250000
  50
0.000000
  1
# 6
  7
STANDARD
  0
TEXT
  8
1
  10
1758.946533
  20
1488.101807
  40
0.250000
  50
0.000000
  1
# 7
  7
STANDARD
  0
TEXT
  8
1
  10
1973.672485
  20
1393.419189
  40
0.250000
  50
0.000000
  1
# 8
  7
STANDARD
  0
TEXT
  8
1
  10
1948.253784
  20
1315.697021
  40
0.250000
  50
0.000000
  1
# 9
  7
STANDARD
  0
POLYLINE
  8
84
  66
1
  70
1
  250
2
  0
VERTEX
  8
84
  10
1590.120117
  20
1315.697998
  0
VERTEX
  8
84
  10
1583.878174
  20
1335.164795
  0
VERTEX
  8
84
  10
1577.559814
  20
1354.606934
  0
VERTEX
  8
84
  10
1571.166992
  20
1374.025269
  0
VERTEX
  8
84
  10
1564.703979
  20
1393.419189
  0
VERTEX
  8
84
  10
1564.703979
  20
1393.419189
  0
VERTEX
  8
84
  10
1570.195557
  20
1394.479004
  0
VERTEX
  8
84
  10
1575.663330
  20
1395.646362
  0
VERTEX
  8
84
  10
1581.066650
  20
1397.000244
  0
VERTEX
  8
84
  10
1586.422729
  20
1398.536133
  0
VERTEX
  8
84
  10
1591.740845
  20
1400.231812
  0
VERTEX
  8
84
  10
1597.006226
  20
1402.084106
  0
VERTEX
  8
84
  10
1602.210938
  20
1404.099487
  0
VERTEX
  8
84
  10
1607.343018
  20
1406.292358
  0
VERTEX
  8
84
  10
1612.390259
  20
1408.669922
  0
VERTEX
  8
84
  10
1617.357788
  20
1411.210571
  0
VERTEX
  8
84
  10
1622.258179
  20
1413.888428
  0
VERTEX
  8
84
  10
1627.095947
  20
1416.677612
  0
VERTEX
  8
84
  10
1631.875977
  20
1419.558716
  0
VERTEX
  8
84
  10
1636.599121
  20
1422.533325
  0
VERTEX
  8
84
  10
1641.257202
  20
1425.609863
  0
VERTEX
  8
84
  10
1645.826416
  20
1428.814941
  0
VERTEX
  8
84
  10
1650.289062
  20
1432.162231
  0
VERTEX
  8
84
  10
1654.678955
  20
1435.606323
  0
VERTEX
  8
84
  10
1662.112305
  20
1441.574829
  0
VERTEX
  8
84
  10
1672.091675
  20
1449.598022
  0
VERTEX
  8
84
  10
1676.483154
  20
1453.039795
  0
VERTEX
  8
84
  10
1680.940430
  20
1456.394653
  0
VERTEX
  8
84
  10
1685.493164
  20
1459.626343
  0
VERTEX
  8
84
  10
1690.131836
  20
1462.734741
  0
VERTEX
  8
84
  10
1694.841187
  20
1465.727905
  0
VERTEX
  8
84
  10
1699.620972
  20
1468.606934
  0
VERTEX
  8
84
  10
1704.477295
  20
1471.368042
  0
VERTEX
  8
84
  10
1709.412231
  20
1473.987061
  0
VERTEX
  8
84
  10
1714.425659
  20
1476.430420
  0
VERTEX
  8
84
  10
1719.538574
  20
1478.655029
  0
VERTEX
  8
84
  10
1723.008545
  20
1479.995483
  0
VERTEX
  8
84
  10
1726.519165
  20
1481.223999
  0
VERTEX
  8
84
  10
1730.065308
  20
1482.350830
  0
VERTEX
  8
84
  10
1735.438232
  20
1483.868164
  0
VERTEX
  8
84
  10
1740.862427
  20
1485.191650
  0
VERTEX
  8
84
  10
1749.053955
  20
1486.797729
  0
VERTEX
  8
84
  10
1758.946533
  20
1488.101807
  0
VERTEX
  8
84
  10
1758.946533
  20
1488.101807
  0
VERTEX
  8
84
  10
1764.940674
  20
1488.467407
  0
VERTEX
  8
84
  10
1770.938721
  20
1488.679443
  0
VERTEX
  8
84
  10
1774.915283
  20
1488.670044
  0
VERTEX
  8
84
  10
1778.890137
  20
1488.538818
  0
VERTEX
  8
84
  10
1782.861816
  20
1488.298096
  0
VERTEX
  8
84
  10
1786.839722
  20
1487.956909
  0
VERTEX
  8
84
  10
1790.805786
  20
1487.515625
  0
VERTEX
  8
84
  10
1794.760010
  20
1486.970459
  0
VERTEX
  8
84
  10
1798.697388
  20
1486.318726
  0
VERTEX
  8
84
  10
1802.613647
  20
1485.556030
  0
VERTEX
  8
84
  10
1806.506348
  20
1484.677124
  0
VERTEX
  8
84
  10
1810.368286
  20
1483.680420
  0
VERTEX
  8
84
  10
1814.198853
  20
1482.572998
  0
VERTEX
  8
84
  10
1817.999878
  20
1481.363159
  0
VERTEX
  8
84
  10
1823.648682
  20
1479.373291
  0
VERTEX
  8
84
  10
1829.226685
  20
1477.193604
  0
VERTEX
  8
84
  10
1834.730835
  20
1474.841797
  0
VERTEX
  8
84
  10
1840.160522
  20
1472.322144
  0
VERTEX
  8
84
  10
1845.510620
  20
1469.632935
  0
VERTEX
  8
84
  10
1850.764160
  20
1466.761230
  0
VERTEX
  8
84
  10
1855.904907
  20
1463.703247
  0
VERTEX
  8
84
  10
1860.951416
  20
1460.491699
  0
VERTEX
  8
84
  10
1862.377930
  20
1459.553223
  0
VERTEX
  8
84
  10
1870.646973
  20
1453.930054
  0
VERTEX
  8
84
  10
1880.488647
  20
1446.876221
  0
VERTEX
  8
84
  10
1890.285645
  20
1439.758545
  0
VERTEX
  8
84
  10
1895.163940
  20
1436.287231
  0
VERTEX
  8
84
  10
1900.071289
  20
1432.860718
  0
VERTEX
  8
84
  10
1905.007446
  20
1429.475830
  0
VERTEX
  8
84
  10
1909.972412
  20
1426.129761
  0
VERTEX
  8
84
  10
1919.998779
  20
1419.577271
  0
VERTEX
  8
84
  10
1925.079834
  20
1416.415405
  0
VERTEX
  8
84
  10
1930.233765
  20
1413.375244
  0
VERTEX
  8
84
  10
1935.476074
  20
1410.487427
  0
VERTEX
  8
84
  10
1940.791504
  20
1407.735229
  0
VERTEX
  8
84
  10
1946.163574
  20
1405.092407
  0
VERTEX
  8
84
  10
1951.582520
  20
1402.547607
  0
VERTEX
  8
84
  10
1957.040894
  20
1400.099609
  0
VERTEX
  8
84
  10
1962.548218
  20
1397.765503
  0
VERTEX
  8
84
  10
1973.672485
  20
1393.419189
  0
VERTEX
  8
84
  10
1973.672485
  20
1393.419189
  0
VERTEX
  8
84
  10
1967.208252
  20
1374.025024
  0
VERTEX
  8
84
  10
1960.815918
  20
1354.605957
  0
VERTEX
  8
84
  10
1954.496460
  20
1335.163818
  0
VERTEX
  8
84
  10
1948.253784
  20
1315.697021
  0
VERTEX
  8
84
  10
1948.253784
  20
1315.697021
  0
VERTEX
  8
84
  10
1930.352295
  20
1316.254517
  0
VERTEX
  8
84
  10
1912.449951
  20
1316.776733
  0
VERTEX
  8
84
  10
1894.545776
  20
1317.235229
  0
VERTEX
  8
84
  10
1876.640015
  20
1317.629395
  0
VERTEX
  8
84
  10
1858.733398
  20
1317.963623
  0
VERTEX
  8
84
  10
1840.825806
  20
1318.236084
  0
VERTEX
  8
84
  10
1822.916504
  20
1318.444946
  0
VERTEX
  8
84
  10
1805.006714
  20
1318.595947
  0
VERTEX
  8
84
  10
1787.097168
  20
1318.693237
  0
VERTEX
  8
84
  10
1769.187622
  20
1318.728271
  0
VERTEX
  8
84
  10
1751.277588
  20
1318.692871
  0
VERTEX
  8
84
  10
1733.367920
  20
1318.595337
  0
VERTEX
  8
84
  10
1715.458008
  20
1318.444214
  0
VERTEX
  8
84
  10
1697.548828
  20
1318.235474
  0
VERTEX
  8
84
  10
1679.641113
  20
1317.963257
  0
VERTEX
  8
84
  10
1661.734619
  20
1317.629028
  0
VERTEX
  8
84
  10
1643.828857
  20
1317.234863
  0
VERTEX
  8
84
  10
1625.924683
  20
1316.776367
  0
VERTEX
  8
84
  10
1590.120117
  20
1315.697998
  0
SEQEND
  0
POINT
  8
2
  10
1590.120117
  20
1315.697998
  0
POINT
  8
2
  10
1564.703979
  20
1393.419189
  0
POINT
  8
2
  10
1758.946533
  20
1488.101807
  0
POINT
  8
2
  10
1973.672485
  20
1393.419189
  0
POINT
  8
2
  10
1948.253784
  20
1315.697021
  0
POINT
  8
3
  10
1583.878174
  20
1335.164795
  0
POINT
  8
3
  10
1577.559814
  20
1354.606934
  0
POINT
  8
3
  10
1571.166992
  20
1374.025269
  0
POINT
  8
3
  10
1575.663330
  20
1395.646362
  0
POINT
  8
3
  10
1586.422729
  20
1398.536133
  0
POINT
  8
3
  10
1597.006226
  20
1402.084106
  0
POINT
  8
3
  10
1607.343018
  20
1406.292358
  0
POINT
  8
3
  10
1617.357788
  20
1411.210571
  0
POINT
  8
3
  10
1627.095947
  20
1416.677612
  0
POINT
  8
3
  10
1636.599121
  20
1422.533325
  0
POINT
  8
3
  10
1645.826416
  20
1428.814941
  0
POINT
  8
3
  10
1654.678955
  20
1435.606323
  0
POINT
  8
3
  10
1662.112305
  20
1441.574829
  0
POINT
  8
3
  10
1672.091675
  20
1449.598022
  0
POINT
  8
3
  10
1680.940430
  20
1456.394653
  0
POINT
  8
3
  10
1690.131836
  20
1462.734741
  0
POINT
  8
3
  10
1699.620972
  20
1468.606934
  0
POINT
  8
3
  10
1709.412231
  20
1473.987061
  0
POINT
  8
3
  10
1719.538574
  20
1478.655029
  0
POINT
  8
3
  10
1730.065308
  20
1482.350830
  0
POINT
  8
3
  10
1740.862427
  20
1485.191650
  0
POINT
  8
3
  10
1749.053955
  20
1486.797729
  0
POINT
  8
3
  10
1770.938721
  20
1488.679443
  0
POINT
  8
3
  10
1782.861816
  20
1488.298096
  0
POINT
  8
3
  10
1794.760010
  20
1486.970459
  0
POINT
  8
3
  10
1806.506348
  20
1484.677124
  0
POINT
  8
3
  10
1817.999878
  20
1481.363159
  0
POINT
  8
3
  10
1829.226685
  20
1477.193604
  0
POINT
  8
3
  10
1840.160522
  20
1472.322144
  0
POINT
  8
3
  10
1850.764160
  20
1466.761230
  0
POINT
  8
3
  10
1860.951416
  20
1460.491699
  0
POINT
  8
3
  10
1862.377930
  20
1459.553223
  0
POINT
  8
3
  10
1870.646973
  20
1453.930054
  0
POINT
  8
3
  10
1890.285645
  20
1439.758545
  0
POINT
  8
3
  10
1909.972412
  20
1426.129761
  0
POINT
  8
3
  10
1919.998779
  20
1419.577271
  0
POINT
  8
3
  10
1930.233765
  20
1413.375244
  0
POINT
  8
3
  10
1940.791504
  20
1407.735229
  0
POINT
  8
3
  10
1951.582520
  20
1402.547607
  0
POINT
  8
3
  10
1962.548218
  20
1397.765503
  0
POINT
  8
3
  10
1967.208252
  20
1374.025024
  0
POINT
  8
3
  10
1960.815918
  20
1354.605957
  0
POINT
  8
3
  10
1954.496460
  20
1335.163818
  0
POINT
  8
3
  10
1912.449951
  20
1316.776733
  0
POINT
  8
3
  10
1876.640015
  20
1317.629395
  0
POINT
  8
3
  10
1840.825806
  20
1318.236084
  0
POINT
  8
3
  10
1805.006714
  20
1318.595947
  0
POINT
  8
3
  10
1769.187622
  20
1318.728271
  0
POINT
  8
3
  10
1733.367920
  20
1318.595337
  0
POINT
  8
3
  10
1697.548828
  20
1318.235474
  0
POINT
  8
3
  10
1661.734619
  20
1317.629028
  0
POINT
  8
3
  10
1625.924683
  20
1316.776367
  0
POINT
  8
4
  10
1662.112305
  20
1441.574829
  30
7.000000
  39
0.000000
  50
308.765778
  0
POINT
  8
4
  10
1758.946533
  20
1488.101807
  30
7.000000
  39
0.000000
  50
275.499023
  0
POINT
  8
4
  10
1862.377930
  20
1459.553223
  30
7.000000
  39
0.000000
  50
236.662979
  0
POINT
  8
4
  10
1870.646973
  20
1453.930054
  30
7.000000
  39
0.000000
  50
235.780365
  0
POINT
  8
4
  10
1769.188232
  20
1402.188232
  30
7.000000
  39
0.000000
  50
0.000000
  0
POINT
  8
4
  10
1769.188232
  20
1402.188232
  30
7.000000
  39
0.000000
  50
0.000000
  0
POINT
  8
4
  10
1769.188232
  20
1402.188232
  30
7.000000
  39
0.000000
  50
0.000000
  0
POINT
  8
4
  10
1769.188232
  20
1402.188232
  30
7.000000
  39
0.000000
  50
0.000000
  0
LINE
  8
7
  10
1769.188232
  20
1312.188232
  11
1769.188232
  21
1492.188232
  0
POLYLINE
  8
8
  66
1
  70
0
  250
0
  0
VERTEX
  8
8
  10
1973.707886
  20
1393.405518
  0
VERTEX
  8
8
  10
1564.703979
  20
1393.419678
  0
SEQEND
  0
TEXT
  8
8
  10
1973.707886
  20
1393.405518
  40
0.250000
  50
0.000000
  1
# 3
  7
STANDARD
  0
TEXT
  8
8
  10
1564.703979
  20
1393.419678
  40
0.250000
  50
0.000000
  1
# 4
  7
STANDARD
  0
POLYLINE
  8
85
  66
1
  70
0
  250
1
  0
VERTEX
  8
85
  10
1973.707886
  20
1393.405518
  0
VERTEX
  8
85
  10
1564.703979
  20
1393.419678
  0
SEQEND
  0
POINT
  8
2
  10
1973.707886
  20
1393.405518
  0
POINT
  8
2
  10
1564.703979
  20
1393.419678
  0
POLYLINE
  8
8
  66
1
  70
0
  250
0
  0
VERTEX
  8
8
  10
1769.210205
  20
1488.897095
  0
VERTEX
  8
8
  10
1769.204102
  20
1318.897339
  0
SEQEND
  0
TEXT
  8
8
  10
1769.210205
  20
1488.897095
  40
0.250000
  50
0.000000
  1
# 1
  7
STANDARD
  0
TEXT
  8
8
  10
1769.204102
  20
1318.897339
  40
0.250000
  50
0.000000
  1
# 2
  7
STANDARD
  0
POLYLINE
  8
85
  66
1
  70
0
  250
1
  0
VERTEX
  8
85
  10
1769.210205
  20
1488.897095
  0
VERTEX
  8
85
  10
1769.204102
  20
1318.897339
  0
SEQEND
  0
POINT
  8
2
  10
1769.210205
  20
1488.897095
  0
POINT
  8
2
  10
1769.204102
  20
1318.897339
  0
TEXT
  8
1
  10
1769.205933
  20
1402.297119
  50
0.000000
  1
PIECE NAME: Sleeves_401164
  7
STANDARD
  0
TEXT
  8
1
  10
1769.205933
  20
1397.297119
  50
0.000000
  1
SIZE: M
  7
STANDARD
  0
TEXT
  8
1
  10
1769.205933
  20
1392.297119
  50
0.000000
  1
ANNOTATION: 
  7
STANDARD
  0
TEXT
  8
1
  10
1769.205933
  20
1387.297119
  50
0.000000
  1
QUANTITY: 1
  7
STANDARD
  0
ENDBLK
  0
ENDSEC
  0
SECTION
  2
ENTITIES
  0
INSERT
  8
1
  2
BoundingBox_-710
  10
0.000000
  20
0.000000
  0
INSERT
  8
1
  2
Body_Front_M
  10
0.000000
  20
0.000000
  0
INSERT
  8
1
  2
Body_Back_M
  10
0.000000
  20
0.000000
  0
INSERT
  8
1
  2
Sleeves_M
  10
0.000000
  20
0.000000
  0
INSERT
  8
1
  2
Sleeves_401164_M
  10
0.000000
  20
0.000000
  0
TEXT
  8
1
  10
0.000000
  20
0.000000
  40
0.250000
  50
0.000000
  1
STYLE NAME: tshirt 2d pattern
  7
STANDARD
  0
TEXT
  8
1
  10
0.000000
  20
0.000000
  40
0.250000
  50
0.000000
  1
CREATION DATE: 09-04-2026
  7
STANDARD
  0
TEXT
  8
1
  10
0.000000
  20
0.000000
  40
0.250000
  50
0.000000
  1
CREATION TIME: 14:12
  7
STANDARD
  0
TEXT
  8
1
  10
0.000000
  20
0.000000
  40
0.250000
  50
0.000000
  1
AUTHOR: CLO Virtual Fashion Inc.
  7
STANDARD
  0
TEXT
  8
1
  10
0.000000
  20
0.000000
  40
0.250000
  50
0.000000
  1
PRODUCT: CLO Standalone OnlineAuth 2025.1.126
  7
STANDARD
  0
TEXT
  8
1
  10
0.000000
  20
0.000000
  40
0.250000
  50
0.000000
  1
VERSION: 3
  7
STANDARD
  0
TEXT
  8
1
  10
0.000000
  20
0.000000
  40
0.250000
  50
0.000000
  1
SAMPLE SIZE: M
  7
STANDARD
  0
TEXT
  8
1
  10
0.000000
  20
0.000000
  40
0.250000
  50
0.000000
  1
UNITS: METRIC
  7
STANDARD
  0
ENDSEC
  0
EOF
